<svg width="265" height="264" viewBox="0 0 265 264" fill="none" xmlns="http://www.w3.org/2000/svg">
<path d="M225.8 225.6C200.12 250.8 168.92 263.4 132.2 263.4C95 263.4 63.68 250.8 38.24 225.6C12.8 200.16 0.0800003 168.96 0.0800003 132C0.0800003 95.04 12.8 63.96 38.24 38.76C63.68 13.32 95 0.599988 132.2 0.599988C169.16 0.599988 200.36 13.32 225.8 38.76C251.48 63.96 264.32 95.04 264.32 132C264.32 168.72 251.48 199.92 225.8 225.6ZM83.6 181.32C96.8 194.04 113 200.4 132.2 200.4C151.4 200.4 167.6 194.04 180.8 181.32C193.76 168.36 200.24 151.92 200.24 132C200.24 111.84 193.76 95.52 180.8 83.04C167.84 70.08 151.64 63.6 132.2 63.6C112.76 63.6 96.56 70.08 83.6 83.04C70.64 95.52 64.16 111.84 64.16 132C64.16 151.92 70.64 168.36 83.6 181.32Z" fill="#4B4B4B"/>
</svg>
