<?xml version="1.0" standalone="no"?>
<svg xmlns:xlink="http://www.w3.org/1999/xlink" xmlns="http://www.w3.org/2000/svg" id="svg" width="1276" height="409.82142857142856" style="height: auto;"><path fill="#5ca1cb" d="M0,36 a36,36 0 0 1 36,-36 h47 a1,1 0 0 1 1,1 v2 a36,36 0 0 1 -36,36 h-47 a1,1 0 0 1 -1,-1 v-2 z"></path><path fill="#2bc7c4" d="M0,82 a36,36 0 0 1 36,-36 h47 a1,1 0 0 1 1,1 v2 a36,36 0 0 1 -36,36 h-47 a1,1 0 0 1 -1,-1 v-2 z"></path><path fill="#5ca1cb" d="M0,92 a1,1 0 0 1 1,-1 h2 a36,36 0 0 1 36,36 v12 a36,36 0 0 1 -36,36 h-2 a1,1 0 0 1 -1,-1 v-82 z"></path><path fill="#2bc7c4" d="M0,183 a1,1 0 0 1 1,-1 h82 a1,1 0 0 1 1,1 v2 a36,36 0 0 1 -36,36 h-12 a36,36 0 0 1 -36,-36 v-2 z"></path><path fill="#5ca1cb" d="M0,229 a1,1 0 0 1 1,-1 h37 a1,1 0 0 1 1,1 v2 a36,36 0 0 1 -36,36 h-2 a1,1 0 0 1 -1,-1 v-37 z"></path><path fill="#9f6cd3" d="M0,309 a36,36 0 0 1 36,-36 h2 a1,1 0 0 1 1,1 v47 a36,36 0 0 1 -36,36 h-2 a1,1 0 0 1 -1,-1 v-47 z"></path><path fill="#9f6cd3" d="M0,365 a1,1 0 0 1 1,-1 h37 a1,1 0 0 1 1,1 v2 a36,36 0 0 1 -36,36 h-2 a1,1 0 0 1 -1,-1 v-37 z"></path><path fill="#2bc7c4" d="M46,92 a1,1 0 0 1 1,-1 h82 a1,1 0 0 1 1,1 v2 a36,36 0 0 1 -36,36 h-47 a1,1 0 0 1 -1,-1 v-37 z"></path><path fill="#9f6cd3" d="M46,156 a19,19 0 0 1 19,-19 h1 a19,19 0 0 1 19,19 v1 a19,19 0 0 1 -19,19 h-1 a19,19 0 0 1 -19,-19 v-1 z"></path><path fill="#5ca1cb" d="M46,229 a1,1 0 0 1 1,-1 h47 a36,36 0 0 1 36,36 v2 a1,1 0 0 1 -1,1 h-82 a1,1 0 0 1 -1,-1 v-37 z"></path><path fill="#5ca1cb" d="M46,274 a1,1 0 0 1 1,-1 h2 a36,36 0 0 1 36,36 v47 a1,1 0 0 1 -1,1 h-2 a36,36 0 0 1 -36,-36 v-47 z"></path><path fill="#9f6cd3" d="M46,383 a19,19 0 0 1 19,-19 h1 a19,19 0 0 1 19,19 v1 a19,19 0 0 1 -19,19 h-1 a19,19 0 0 1 -19,-19 v-1 z"></path><path fill="#9f6cd3" d="M91,1 a1,1 0 0 1 1,-1 h37 a1,1 0 0 1 1,1 v37 a1,1 0 0 1 -1,1 h-2 a36,36 0 0 1 -36,-36 v-2 z"></path><path fill="#5ca1cb" d="M91,65 a19,19 0 0 1 19,-19 h1 a19,19 0 0 1 19,19 v1 a19,19 0 0 1 -19,19 h-1 a19,19 0 0 1 -19,-19 v-1 z"></path><path fill="#9f6cd3" d="M91,173 a36,36 0 0 1 36,-36 h47 a1,1 0 0 1 1,1 v37 a1,1 0 0 1 -1,1 h-82 a1,1 0 0 1 -1,-1 v-2 z"></path><path fill="#9f6cd3" d="M91,183 a1,1 0 0 1 1,-1 h37 a1,1 0 0 1 1,1 v2 a36,36 0 0 1 -36,36 h-2 a1,1 0 0 1 -1,-1 v-37 z"></path><path fill="#9f6cd3" d="M91,274 a1,1 0 0 1 1,-1 h37 a1,1 0 0 1 1,1 v37 a1,1 0 0 1 -1,1 h-37 a1,1 0 0 1 -1,-1 v-37 z"></path><path fill="#9f6cd3" d="M91,320 a1,1 0 0 1 1,-1 h82 a1,1 0 0 1 1,1 v37 a1,1 0 0 1 -1,1 h-47 a36,36 0 0 1 -36,-36 v-2 z"></path><path fill="#9f6cd3" d="M91,365 a1,1 0 0 1 1,-1 h37 a1,1 0 0 1 1,1 v37 a1,1 0 0 1 -1,1 h-37 a1,1 0 0 1 -1,-1 v-37 z"></path><path fill="#5ca1cb" d="M137,1 a1,1 0 0 1 1,-1 h37 a1,1 0 0 1 1,1 v2 a36,36 0 0 1 -36,36 h-2 a1,1 0 0 1 -1,-1 v-37 z"></path><path fill="#2bc7c4" d="M137,82 a36,36 0 0 1 36,-36 h12 a36,36 0 0 1 36,36 v2 a1,1 0 0 1 -1,1 h-82 a1,1 0 0 1 -1,-1 v-2 z"></path><path fill="#2bc7c4" d="M137,92 a1,1 0 0 1 1,-1 h37 a1,1 0 0 1 1,1 v37 a1,1 0 0 1 -1,1 h-37 a1,1 0 0 1 -1,-1 v-37 z"></path><path fill="#5ca1cb" d="M137,218 a36,36 0 0 1 36,-36 h47 a1,1 0 0 1 1,1 v2 a36,36 0 0 1 -36,36 h-47 a1,1 0 0 1 -1,-1 v-2 z"></path><path fill="#2bc7c4" d="M137,229 a1,1 0 0 1 1,-1 h82 a1,1 0 0 1 1,1 v2 a36,36 0 0 1 -36,36 h-12 a36,36 0 0 1 -36,-36 v-2 z"></path><path fill="#2bc7c4" d="M137,309 a36,36 0 0 1 36,-36 h2 a1,1 0 0 1 1,1 v37 a1,1 0 0 1 -1,1 h-37 a1,1 0 0 1 -1,-1 v-2 z"></path><path fill="#5ca1cb" d="M137,383 a19,19 0 0 1 19,-19 h1 a19,19 0 0 1 19,19 v1 a19,19 0 0 1 -19,19 h-1 a19,19 0 0 1 -19,-19 v-1 z"></path><path fill="#9f6cd3" d="M182,1 a1,1 0 0 1 1,-1 h37 a1,1 0 0 1 1,1 v37 a1,1 0 0 1 -1,1 h-2 a36,36 0 0 1 -36,-36 v-2 z"></path><path fill="#5ca1cb" d="M182,92 a1,1 0 0 1 1,-1 h2 a36,36 0 0 1 36,36 v47 a1,1 0 0 1 -1,1 h-2 a36,36 0 0 1 -36,-36 v-47 z"></path><path fill="#5ca1cb" d="M182,309 a36,36 0 0 1 36,-36 h2 a1,1 0 0 1 1,1 v37 a1,1 0 0 1 -1,1 h-37 a1,1 0 0 1 -1,-1 v-2 z"></path><path fill="#5ca1cb" d="M182,338 a19,19 0 0 1 19,-19 h1 a19,19 0 0 1 19,19 v1 a19,19 0 0 1 -19,19 h-1 a19,19 0 0 1 -19,-19 v-1 z"></path><path fill="#2bc7c4" d="M182,365 a1,1 0 0 1 1,-1 h37 a1,1 0 0 1 1,1 v37 a1,1 0 0 1 -1,1 h-37 a1,1 0 0 1 -1,-1 v-37 z"></path><path fill="#2bc7c4" d="M228,36 a36,36 0 0 1 36,-36 h47 a1,1 0 0 1 1,1 v37 a1,1 0 0 1 -1,1 h-82 a1,1 0 0 1 -1,-1 v-2 z"></path><path fill="#5ca1cb" d="M228,82 a36,36 0 0 1 36,-36 h47 a1,1 0 0 1 1,1 v2 a36,36 0 0 1 -36,36 h-47 a1,1 0 0 1 -1,-1 v-2 z"></path><path fill="#9f6cd3" d="M228,92 a1,1 0 0 1 1,-1 h37 a1,1 0 0 1 1,1 v82 a1,1 0 0 1 -1,1 h-37 a1,1 0 0 1 -1,-1 v-82 z"></path><path fill="#5ca1cb" d="M228,183 a1,1 0 0 1 1,-1 h2 a36,36 0 0 1 36,36 v2 a1,1 0 0 1 -1,1 h-37 a1,1 0 0 1 -1,-1 v-37 z"></path><path fill="#5ca1cb" d="M228,264 a36,36 0 0 1 36,-36 h2 a1,1 0 0 1 1,1 v82 a1,1 0 0 1 -1,1 h-2 a36,36 0 0 1 -36,-36 v-12 z"></path><path fill="#5ca1cb" d="M228,320 a1,1 0 0 1 1,-1 h37 a1,1 0 0 1 1,1 v82 a1,1 0 0 1 -1,1 h-2 a36,36 0 0 1 -36,-36 v-47 z"></path><path fill="#5ca1cb" d="M273,127 a36,36 0 0 1 36,-36 h2 a1,1 0 0 1 1,1 v47 a36,36 0 0 1 -36,36 h-2 a1,1 0 0 1 -1,-1 v-47 z"></path><path fill="#2bc7c4" d="M273,218 a36,36 0 0 1 36,-36 h2 a1,1 0 0 1 1,1 v82 a1,1 0 0 1 -1,1 h-2 a36,36 0 0 1 -36,-36 v-12 z"></path><path fill="#2bc7c4" d="M273,274 a1,1 0 0 1 1,-1 h37 a1,1 0 0 1 1,1 v82 a1,1 0 0 1 -1,1 h-2 a36,36 0 0 1 -36,-36 v-47 z"></path><path fill="#2bc7c4" d="M273,383 a19,19 0 0 1 19,-19 h1 a19,19 0 0 1 19,19 v1 a19,19 0 0 1 -19,19 h-1 a19,19 0 0 1 -19,-19 v-1 z"></path><path fill="#5ca1cb" d="M319,1 a1,1 0 0 1 1,-1 h2 a36,36 0 0 1 36,36 v12 a36,36 0 0 1 -36,36 h-2 a1,1 0 0 1 -1,-1 v-82 z"></path><path fill="#2bc7c4" d="M319,127 a36,36 0 0 1 36,-36 h2 a1,1 0 0 1 1,1 v82 a1,1 0 0 1 -1,1 h-37 a1,1 0 0 1 -1,-1 v-47 z"></path><path fill="#5ca1cb" d="M319,183 a1,1 0 0 1 1,-1 h82 a1,1 0 0 1 1,1 v2 a36,36 0 0 1 -36,36 h-12 a36,36 0 0 1 -36,-36 v-2 z"></path><path fill="#5ca1cb" d="M319,229 a1,1 0 0 1 1,-1 h2 a36,36 0 0 1 36,36 v47 a1,1 0 0 1 -1,1 h-37 a1,1 0 0 1 -1,-1 v-82 z"></path><path fill="#5ca1cb" d="M319,320 a1,1 0 0 1 1,-1 h82 a1,1 0 0 1 1,1 v2 a36,36 0 0 1 -36,36 h-12 a36,36 0 0 1 -36,-36 v-2 z"></path><path fill="#2bc7c4" d="M319,365 a1,1 0 0 1 1,-1 h37 a1,1 0 0 1 1,1 v37 a1,1 0 0 1 -1,1 h-37 a1,1 0 0 1 -1,-1 v-37 z"></path><path fill="#9f6cd3" d="M364,1 a1,1 0 0 1 1,-1 h2 a36,36 0 0 1 36,36 v12 a36,36 0 0 1 -36,36 h-2 a1,1 0 0 1 -1,-1 v-82 z"></path><path fill="#5ca1cb" d="M364,92 a1,1 0 0 1 1,-1 h47 a36,36 0 0 1 36,36 v2 a1,1 0 0 1 -1,1 h-47 a36,36 0 0 1 -36,-36 v-2 z"></path><path fill="#9f6cd3" d="M364,138 a1,1 0 0 1 1,-1 h37 a1,1 0 0 1 1,1 v37 a1,1 0 0 1 -1,1 h-2 a36,36 0 0 1 -36,-36 v-2 z"></path><path fill="#9f6cd3" d="M364,264 a36,36 0 0 1 36,-36 h2 a1,1 0 0 1 1,1 v82 a1,1 0 0 1 -1,1 h-37 a1,1 0 0 1 -1,-1 v-47 z"></path><path fill="#2bc7c4" d="M364,365 a1,1 0 0 1 1,-1 h37 a1,1 0 0 1 1,1 v37 a1,1 0 0 1 -1,1 h-37 a1,1 0 0 1 -1,-1 v-37 z"></path><path fill="#5ca1cb" d="M410,1 a1,1 0 0 1 1,-1 h37 a1,1 0 0 1 1,1 v37 a1,1 0 0 1 -1,1 h-37 a1,1 0 0 1 -1,-1 v-37 z"></path><path fill="#5ca1cb" d="M410,82 a36,36 0 0 1 36,-36 h12 a36,36 0 0 1 36,36 v2 a1,1 0 0 1 -1,1 h-82 a1,1 0 0 1 -1,-1 v-2 z"></path><path fill="#9f6cd3" d="M410,173 a36,36 0 0 1 36,-36 h47 a1,1 0 0 1 1,1 v2 a36,36 0 0 1 -36,36 h-47 a1,1 0 0 1 -1,-1 v-2 z"></path><path fill="#5ca1cb" d="M410,183 a1,1 0 0 1 1,-1 h47 a36,36 0 0 1 36,36 v2 a1,1 0 0 1 -1,1 h-82 a1,1 0 0 1 -1,-1 v-37 z"></path><path fill="#5ca1cb" d="M410,229 a1,1 0 0 1 1,-1 h37 a1,1 0 0 1 1,1 v82 a1,1 0 0 1 -1,1 h-2 a36,36 0 0 1 -36,-36 v-47 z"></path><path fill="#2bc7c4" d="M410,320 a1,1 0 0 1 1,-1 h47 a36,36 0 0 1 36,36 v2 a1,1 0 0 1 -1,1 h-82 a1,1 0 0 1 -1,-1 v-37 z"></path><path fill="#5ca1cb" d="M410,400 a36,36 0 0 1 36,-36 h2 a1,1 0 0 1 1,1 v37 a1,1 0 0 1 -1,1 h-37 a1,1 0 0 1 -1,-1 v-2 z"></path><path fill="#5ca1cb" d="M455,1 a1,1 0 0 1 1,-1 h37 a1,1 0 0 1 1,1 v2 a36,36 0 0 1 -36,36 h-2 a1,1 0 0 1 -1,-1 v-37 z"></path><path fill="#2bc7c4" d="M455,127 a36,36 0 0 1 36,-36 h2 a1,1 0 0 1 1,1 v37 a1,1 0 0 1 -1,1 h-37 a1,1 0 0 1 -1,-1 v-2 z"></path><path fill="#5ca1cb" d="M455,229 a1,1 0 0 1 1,-1 h82 a1,1 0 0 1 1,1 v37 a1,1 0 0 1 -1,1 h-82 a1,1 0 0 1 -1,-1 v-37 z"></path><path fill="#9f6cd3" d="M455,274 a1,1 0 0 1 1,-1 h37 a1,1 0 0 1 1,1 v37 a1,1 0 0 1 -1,1 h-37 a1,1 0 0 1 -1,-1 v-37 z"></path><path fill="#5ca1cb" d="M455,365 a1,1 0 0 1 1,-1 h37 a1,1 0 0 1 1,1 v37 a1,1 0 0 1 -1,1 h-2 a36,36 0 0 1 -36,-36 v-2 z"></path><path fill="#9f6cd3" d="M501,36 a36,36 0 0 1 36,-36 h47 a1,1 0 0 1 1,1 v2 a36,36 0 0 1 -36,36 h-47 a1,1 0 0 1 -1,-1 v-2 z"></path><path fill="#2bc7c4" d="M501,47 a1,1 0 0 1 1,-1 h82 a1,1 0 0 1 1,1 v2 a36,36 0 0 1 -36,36 h-12 a36,36 0 0 1 -36,-36 v-2 z"></path><path fill="#2bc7c4" d="M501,92 a1,1 0 0 1 1,-1 h37 a1,1 0 0 1 1,1 v82 a1,1 0 0 1 -1,1 h-2 a36,36 0 0 1 -36,-36 v-47 z"></path><path fill="#2bc7c4" d="M501,183 a1,1 0 0 1 1,-1 h37 a1,1 0 0 1 1,1 v37 a1,1 0 0 1 -1,1 h-37 a1,1 0 0 1 -1,-1 v-37 z"></path><path fill="#9f6cd3" d="M501,274 a1,1 0 0 1 1,-1 h37 a1,1 0 0 1 1,1 v37 a1,1 0 0 1 -1,1 h-2 a36,36 0 0 1 -36,-36 v-2 z"></path><path fill="#5ca1cb" d="M501,320 a1,1 0 0 1 1,-1 h82 a1,1 0 0 1 1,1 v2 a36,36 0 0 1 -36,36 h-12 a36,36 0 0 1 -36,-36 v-2 z"></path><path fill="#9f6cd3" d="M501,365 a1,1 0 0 1 1,-1 h37 a1,1 0 0 1 1,1 v37 a1,1 0 0 1 -1,1 h-37 a1,1 0 0 1 -1,-1 v-37 z"></path><path fill="#2bc7c4" d="M546,92 a1,1 0 0 1 1,-1 h2 a36,36 0 0 1 36,36 v47 a1,1 0 0 1 -1,1 h-37 a1,1 0 0 1 -1,-1 v-82 z"></path><path fill="#2bc7c4" d="M546,201 a19,19 0 0 1 19,-19 h1 a19,19 0 0 1 19,19 v1 a19,19 0 0 1 -19,19 h-1 a19,19 0 0 1 -19,-19 v-1 z"></path><path fill="#9f6cd3" d="M546,229 a1,1 0 0 1 1,-1 h37 a1,1 0 0 1 1,1 v37 a1,1 0 0 1 -1,1 h-37 a1,1 0 0 1 -1,-1 v-37 z"></path><path fill="#5ca1cb" d="M546,274 a1,1 0 0 1 1,-1 h82 a1,1 0 0 1 1,1 v2 a36,36 0 0 1 -36,36 h-47 a1,1 0 0 1 -1,-1 v-37 z"></path><path fill="#2bc7c4" d="M546,365 a1,1 0 0 1 1,-1 h37 a1,1 0 0 1 1,1 v37 a1,1 0 0 1 -1,1 h-2 a36,36 0 0 1 -36,-36 v-2 z"></path><path fill="#2bc7c4" d="M592,1 a1,1 0 0 1 1,-1 h37 a1,1 0 0 1 1,1 v82 a1,1 0 0 1 -1,1 h-2 a36,36 0 0 1 -36,-36 v-47 z"></path><path fill="#2bc7c4" d="M592,92 a1,1 0 0 1 1,-1 h82 a1,1 0 0 1 1,1 v37 a1,1 0 0 1 -1,1 h-82 a1,1 0 0 1 -1,-1 v-37 z"></path><path fill="#5ca1cb" d="M592,138 a1,1 0 0 1 1,-1 h37 a1,1 0 0 1 1,1 v82 a1,1 0 0 1 -1,1 h-37 a1,1 0 0 1 -1,-1 v-82 z"></path><path fill="#5ca1cb" d="M592,264 a36,36 0 0 1 36,-36 h47 a1,1 0 0 1 1,1 v37 a1,1 0 0 1 -1,1 h-82 a1,1 0 0 1 -1,-1 v-2 z"></path><path fill="#9f6cd3" d="M592,320 a1,1 0 0 1 1,-1 h37 a1,1 0 0 1 1,1 v82 a1,1 0 0 1 -1,1 h-37 a1,1 0 0 1 -1,-1 v-82 z"></path><path fill="#2bc7c4" d="M638,1 a1,1 0 0 1 1,-1 h37 a1,1 0 0 1 1,1 v2 a36,36 0 0 1 -36,36 h-2 a1,1 0 0 1 -1,-1 v-37 z"></path><path fill="#2bc7c4" d="M638,82 a36,36 0 0 1 36,-36 h47 a1,1 0 0 1 1,1 v37 a1,1 0 0 1 -1,1 h-82 a1,1 0 0 1 -1,-1 v-2 z"></path><path fill="#9f6cd3" d="M638,173 a36,36 0 0 1 36,-36 h2 a1,1 0 0 1 1,1 v82 a1,1 0 0 1 -1,1 h-2 a36,36 0 0 1 -36,-36 v-12 z"></path><path fill="#9f6cd3" d="M638,274 a1,1 0 0 1 1,-1 h2 a36,36 0 0 1 36,36 v2 a1,1 0 0 1 -1,1 h-37 a1,1 0 0 1 -1,-1 v-37 z"></path><path fill="#9f6cd3" d="M638,320 a1,1 0 0 1 1,-1 h37 a1,1 0 0 1 1,1 v37 a1,1 0 0 1 -1,1 h-2 a36,36 0 0 1 -36,-36 v-2 z"></path><path fill="#9f6cd3" d="M638,365 a1,1 0 0 1 1,-1 h37 a1,1 0 0 1 1,1 v37 a1,1 0 0 1 -1,1 h-2 a36,36 0 0 1 -36,-36 v-2 z"></path><path fill="#2bc7c4" d="M683,1 a1,1 0 0 1 1,-1 h82 a1,1 0 0 1 1,1 v37 a1,1 0 0 1 -1,1 h-47 a36,36 0 0 1 -36,-36 v-2 z"></path><path fill="#2bc7c4" d="M683,92 a1,1 0 0 1 1,-1 h37 a1,1 0 0 1 1,1 v2 a36,36 0 0 1 -36,36 h-2 a1,1 0 0 1 -1,-1 v-37 z"></path><path fill="#9f6cd3" d="M683,138 a1,1 0 0 1 1,-1 h2 a36,36 0 0 1 36,36 v12 a36,36 0 0 1 -36,36 h-2 a1,1 0 0 1 -1,-1 v-82 z"></path><path fill="#2bc7c4" d="M683,229 a1,1 0 0 1 1,-1 h37 a1,1 0 0 1 1,1 v37 a1,1 0 0 1 -1,1 h-37 a1,1 0 0 1 -1,-1 v-37 z"></path><path fill="#2bc7c4" d="M683,309 a36,36 0 0 1 36,-36 h2 a1,1 0 0 1 1,1 v47 a36,36 0 0 1 -36,36 h-2 a1,1 0 0 1 -1,-1 v-47 z"></path><path fill="#9f6cd3" d="M683,365 a1,1 0 0 1 1,-1 h37 a1,1 0 0 1 1,1 v37 a1,1 0 0 1 -1,1 h-37 a1,1 0 0 1 -1,-1 v-37 z"></path><path fill="#5ca1cb" d="M729,82 a36,36 0 0 1 36,-36 h2 a1,1 0 0 1 1,1 v37 a1,1 0 0 1 -1,1 h-37 a1,1 0 0 1 -1,-1 v-2 z"></path><path fill="#5ca1cb" d="M729,92 a1,1 0 0 1 1,-1 h82 a1,1 0 0 1 1,1 v37 a1,1 0 0 1 -1,1 h-47 a36,36 0 0 1 -36,-36 v-2 z"></path><path fill="#2bc7c4" d="M729,138 a1,1 0 0 1 1,-1 h2 a36,36 0 0 1 36,36 v2 a1,1 0 0 1 -1,1 h-37 a1,1 0 0 1 -1,-1 v-37 z"></path><path fill="#2bc7c4" d="M729,218 a36,36 0 0 1 36,-36 h12 a36,36 0 0 1 36,36 v2 a1,1 0 0 1 -1,1 h-82 a1,1 0 0 1 -1,-1 v-2 z"></path><path fill="#9f6cd3" d="M729,264 a36,36 0 0 1 36,-36 h2 a1,1 0 0 1 1,1 v82 a1,1 0 0 1 -1,1 h-2 a36,36 0 0 1 -36,-36 v-12 z"></path><path fill="#9f6cd3" d="M729,320 a1,1 0 0 1 1,-1 h47 a36,36 0 0 1 36,36 v2 a1,1 0 0 1 -1,1 h-47 a36,36 0 0 1 -36,-36 v-2 z"></path><path fill="#2bc7c4" d="M729,365 a1,1 0 0 1 1,-1 h37 a1,1 0 0 1 1,1 v37 a1,1 0 0 1 -1,1 h-2 a36,36 0 0 1 -36,-36 v-2 z"></path><path fill="#2bc7c4" d="M774,1 a1,1 0 0 1 1,-1 h37 a1,1 0 0 1 1,1 v82 a1,1 0 0 1 -1,1 h-2 a36,36 0 0 1 -36,-36 v-47 z"></path><path fill="#9f6cd3" d="M774,138 a1,1 0 0 1 1,-1 h37 a1,1 0 0 1 1,1 v2 a36,36 0 0 1 -36,36 h-2 a1,1 0 0 1 -1,-1 v-37 z"></path><path fill="#5ca1cb" d="M774,229 a1,1 0 0 1 1,-1 h37 a1,1 0 0 1 1,1 v82 a1,1 0 0 1 -1,1 h-2 a36,36 0 0 1 -36,-36 v-47 z"></path><path fill="#2bc7c4" d="M774,365 a1,1 0 0 1 1,-1 h2 a36,36 0 0 1 36,36 v2 a1,1 0 0 1 -1,1 h-37 a1,1 0 0 1 -1,-1 v-37 z"></path><path fill="#2bc7c4" d="M820,36 a36,36 0 0 1 36,-36 h2 a1,1 0 0 1 1,1 v82 a1,1 0 0 1 -1,1 h-2 a36,36 0 0 1 -36,-36 v-12 z"></path><path fill="#5ca1cb" d="M820,92 a1,1 0 0 1 1,-1 h37 a1,1 0 0 1 1,1 v37 a1,1 0 0 1 -1,1 h-2 a36,36 0 0 1 -36,-36 v-2 z"></path><path fill="#2bc7c4" d="M820,173 a36,36 0 0 1 36,-36 h12 a36,36 0 0 1 36,36 v2 a1,1 0 0 1 -1,1 h-82 a1,1 0 0 1 -1,-1 v-2 z"></path><path fill="#5ca1cb" d="M820,218 a36,36 0 0 1 36,-36 h47 a1,1 0 0 1 1,1 v2 a36,36 0 0 1 -36,36 h-47 a1,1 0 0 1 -1,-1 v-2 z"></path><path fill="#5ca1cb" d="M820,264 a36,36 0 0 1 36,-36 h2 a1,1 0 0 1 1,1 v82 a1,1 0 0 1 -1,1 h-37 a1,1 0 0 1 -1,-1 v-47 z"></path><path fill="#9f6cd3" d="M820,355 a36,36 0 0 1 36,-36 h47 a1,1 0 0 1 1,1 v37 a1,1 0 0 1 -1,1 h-82 a1,1 0 0 1 -1,-1 v-2 z"></path><path fill="#2bc7c4" d="M820,400 a36,36 0 0 1 36,-36 h2 a1,1 0 0 1 1,1 v37 a1,1 0 0 1 -1,1 h-37 a1,1 0 0 1 -1,-1 v-2 z"></path><path fill="#2bc7c4" d="M865,36 a36,36 0 0 1 36,-36 h2 a1,1 0 0 1 1,1 v82 a1,1 0 0 1 -1,1 h-2 a36,36 0 0 1 -36,-36 v-12 z"></path><path fill="#9f6cd3" d="M865,110 a19,19 0 0 1 19,-19 h1 a19,19 0 0 1 19,19 v1 a19,19 0 0 1 -19,19 h-1 a19,19 0 0 1 -19,-19 v-1 z"></path><path fill="#2bc7c4" d="M865,229 a1,1 0 0 1 1,-1 h37 a1,1 0 0 1 1,1 v37 a1,1 0 0 1 -1,1 h-2 a36,36 0 0 1 -36,-36 v-2 z"></path><path fill="#2bc7c4" d="M865,274 a1,1 0 0 1 1,-1 h82 a1,1 0 0 1 1,1 v37 a1,1 0 0 1 -1,1 h-82 a1,1 0 0 1 -1,-1 v-37 z"></path><path fill="#5ca1cb" d="M865,383 a19,19 0 0 1 19,-19 h1 a19,19 0 0 1 19,19 v1 a19,19 0 0 1 -19,19 h-1 a19,19 0 0 1 -19,-19 v-1 z"></path><path fill="#2bc7c4" d="M911,36 a36,36 0 0 1 36,-36 h2 a1,1 0 0 1 1,1 v37 a1,1 0 0 1 -1,1 h-37 a1,1 0 0 1 -1,-1 v-2 z"></path><path fill="#2bc7c4" d="M911,47 a1,1 0 0 1 1,-1 h37 a1,1 0 0 1 1,1 v37 a1,1 0 0 1 -1,1 h-37 a1,1 0 0 1 -1,-1 v-37 z"></path><path fill="#9f6cd3" d="M911,127 a36,36 0 0 1 36,-36 h2 a1,1 0 0 1 1,1 v82 a1,1 0 0 1 -1,1 h-2 a36,36 0 0 1 -36,-36 v-12 z"></path><path fill="#5ca1cb" d="M911,183 a1,1 0 0 1 1,-1 h82 a1,1 0 0 1 1,1 v2 a36,36 0 0 1 -36,36 h-12 a36,36 0 0 1 -36,-36 v-2 z"></path><path fill="#5ca1cb" d="M911,264 a36,36 0 0 1 36,-36 h2 a1,1 0 0 1 1,1 v37 a1,1 0 0 1 -1,1 h-37 a1,1 0 0 1 -1,-1 v-2 z"></path><path fill="#5ca1cb" d="M911,355 a36,36 0 0 1 36,-36 h2 a1,1 0 0 1 1,1 v37 a1,1 0 0 1 -1,1 h-37 a1,1 0 0 1 -1,-1 v-2 z"></path><path fill="#9f6cd3" d="M911,365 a1,1 0 0 1 1,-1 h2 a36,36 0 0 1 36,36 v2 a1,1 0 0 1 -1,1 h-37 a1,1 0 0 1 -1,-1 v-37 z"></path><path fill="#2bc7c4" d="M956,1 a1,1 0 0 1 1,-1 h47 a36,36 0 0 1 36,36 v2 a1,1 0 0 1 -1,1 h-47 a36,36 0 0 1 -36,-36 v-2 z"></path><path fill="#2bc7c4" d="M956,47 a1,1 0 0 1 1,-1 h47 a36,36 0 0 1 36,36 v2 a1,1 0 0 1 -1,1 h-82 a1,1 0 0 1 -1,-1 v-37 z"></path><path fill="#2bc7c4" d="M956,127 a36,36 0 0 1 36,-36 h2 a1,1 0 0 1 1,1 v47 a36,36 0 0 1 -36,36 h-2 a1,1 0 0 1 -1,-1 v-47 z"></path><path fill="#5ca1cb" d="M956,264 a36,36 0 0 1 36,-36 h12 a36,36 0 0 1 36,36 v2 a1,1 0 0 1 -1,1 h-82 a1,1 0 0 1 -1,-1 v-2 z"></path><path fill="#2bc7c4" d="M956,274 a1,1 0 0 1 1,-1 h37 a1,1 0 0 1 1,1 v47 a36,36 0 0 1 -36,36 h-2 a1,1 0 0 1 -1,-1 v-82 z"></path><path fill="#5ca1cb" d="M956,400 a36,36 0 0 1 36,-36 h2 a1,1 0 0 1 1,1 v37 a1,1 0 0 1 -1,1 h-37 a1,1 0 0 1 -1,-1 v-2 z"></path><path fill="#5ca1cb" d="M1002,127 a36,36 0 0 1 36,-36 h2 a1,1 0 0 1 1,1 v82 a1,1 0 0 1 -1,1 h-37 a1,1 0 0 1 -1,-1 v-47 z"></path><path fill="#2bc7c4" d="M1002,183 a1,1 0 0 1 1,-1 h37 a1,1 0 0 1 1,1 v37 a1,1 0 0 1 -1,1 h-2 a36,36 0 0 1 -36,-36 v-2 z"></path><path fill="#5ca1cb" d="M1002,309 a36,36 0 0 1 36,-36 h2 a1,1 0 0 1 1,1 v37 a1,1 0 0 1 -1,1 h-37 a1,1 0 0 1 -1,-1 v-2 z"></path><path fill="#2bc7c4" d="M1002,320 a1,1 0 0 1 1,-1 h2 a36,36 0 0 1 36,36 v12 a36,36 0 0 1 -36,36 h-2 a1,1 0 0 1 -1,-1 v-82 z"></path><path fill="#2bc7c4" d="M1047,36 a36,36 0 0 1 36,-36 h47 a1,1 0 0 1 1,1 v37 a1,1 0 0 1 -1,1 h-82 a1,1 0 0 1 -1,-1 v-2 z"></path><path fill="#2bc7c4" d="M1047,47 a1,1 0 0 1 1,-1 h37 a1,1 0 0 1 1,1 v82 a1,1 0 0 1 -1,1 h-37 a1,1 0 0 1 -1,-1 v-82 z"></path><path fill="#9f6cd3" d="M1047,138 a1,1 0 0 1 1,-1 h2 a36,36 0 0 1 36,36 v47 a1,1 0 0 1 -1,1 h-37 a1,1 0 0 1 -1,-1 v-82 z"></path><path fill="#9f6cd3" d="M1047,229 a1,1 0 0 1 1,-1 h37 a1,1 0 0 1 1,1 v47 a36,36 0 0 1 -36,36 h-2 a1,1 0 0 1 -1,-1 v-82 z"></path><path fill="#9f6cd3" d="M1047,320 a1,1 0 0 1 1,-1 h82 a1,1 0 0 1 1,1 v2 a36,36 0 0 1 -36,36 h-47 a1,1 0 0 1 -1,-1 v-37 z"></path><path fill="#5ca1cb" d="M1047,365 a1,1 0 0 1 1,-1 h37 a1,1 0 0 1 1,1 v37 a1,1 0 0 1 -1,1 h-2 a36,36 0 0 1 -36,-36 v-2 z"></path><path fill="#2bc7c4" d="M1093,82 a36,36 0 0 1 36,-36 h2 a1,1 0 0 1 1,1 v82 a1,1 0 0 1 -1,1 h-2 a36,36 0 0 1 -36,-36 v-12 z"></path><path fill="#2bc7c4" d="M1093,138 a1,1 0 0 1 1,-1 h82 a1,1 0 0 1 1,1 v2 a36,36 0 0 1 -36,36 h-12 a36,36 0 0 1 -36,-36 v-2 z"></path><path fill="#2bc7c4" d="M1093,218 a36,36 0 0 1 36,-36 h47 a1,1 0 0 1 1,1 v2 a36,36 0 0 1 -36,36 h-47 a1,1 0 0 1 -1,-1 v-2 z"></path><path fill="#5ca1cb" d="M1093,229 a1,1 0 0 1 1,-1 h37 a1,1 0 0 1 1,1 v47 a36,36 0 0 1 -36,36 h-2 a1,1 0 0 1 -1,-1 v-82 z"></path><path fill="#9f6cd3" d="M1093,365 a1,1 0 0 1 1,-1 h37 a1,1 0 0 1 1,1 v37 a1,1 0 0 1 -1,1 h-2 a36,36 0 0 1 -36,-36 v-2 z"></path><path fill="#2bc7c4" d="M1138,1 a1,1 0 0 1 1,-1 h82 a1,1 0 0 1 1,1 v37 a1,1 0 0 1 -1,1 h-82 a1,1 0 0 1 -1,-1 v-37 z"></path><path fill="#9f6cd3" d="M1138,82 a36,36 0 0 1 36,-36 h2 a1,1 0 0 1 1,1 v82 a1,1 0 0 1 -1,1 h-37 a1,1 0 0 1 -1,-1 v-47 z"></path><path fill="#5ca1cb" d="M1138,229 a1,1 0 0 1 1,-1 h82 a1,1 0 0 1 1,1 v2 a36,36 0 0 1 -36,36 h-12 a36,36 0 0 1 -36,-36 v-2 z"></path><path fill="#9f6cd3" d="M1138,309 a36,36 0 0 1 36,-36 h12 a36,36 0 0 1 36,36 v2 a1,1 0 0 1 -1,1 h-82 a1,1 0 0 1 -1,-1 v-2 z"></path><path fill="#2bc7c4" d="M1138,320 a1,1 0 0 1 1,-1 h37 a1,1 0 0 1 1,1 v82 a1,1 0 0 1 -1,1 h-2 a36,36 0 0 1 -36,-36 v-47 z"></path><path fill="#2bc7c4" d="M1184,82 a36,36 0 0 1 36,-36 h2 a1,1 0 0 1 1,1 v82 a1,1 0 0 1 -1,1 h-2 a36,36 0 0 1 -36,-36 v-12 z"></path><path fill="#2bc7c4" d="M1184,138 a1,1 0 0 1 1,-1 h47 a36,36 0 0 1 36,36 v2 a1,1 0 0 1 -1,1 h-82 a1,1 0 0 1 -1,-1 v-37 z"></path><path fill="#9f6cd3" d="M1184,183 a1,1 0 0 1 1,-1 h82 a1,1 0 0 1 1,1 v37 a1,1 0 0 1 -1,1 h-47 a36,36 0 0 1 -36,-36 v-2 z"></path><path fill="#2bc7c4" d="M1184,320 a1,1 0 0 1 1,-1 h2 a36,36 0 0 1 36,36 v2 a1,1 0 0 1 -1,1 h-37 a1,1 0 0 1 -1,-1 v-37 z"></path><path fill="#2bc7c4" d="M1184,365 a1,1 0 0 1 1,-1 h37 a1,1 0 0 1 1,1 v37 a1,1 0 0 1 -1,1 h-2 a36,36 0 0 1 -36,-36 v-2 z"></path><path fill="#5ca1cb" d="M1229,1 a1,1 0 0 1 1,-1 h2 a36,36 0 0 1 36,36 v2 a1,1 0 0 1 -1,1 h-37 a1,1 0 0 1 -1,-1 v-37 z"></path><path fill="#9f6cd3" d="M1229,47 a1,1 0 0 1 1,-1 h37 a1,1 0 0 1 1,1 v37 a1,1 0 0 1 -1,1 h-2 a36,36 0 0 1 -36,-36 v-2 z"></path><path fill="#9f6cd3" d="M1229,127 a36,36 0 0 1 36,-36 h2 a1,1 0 0 1 1,1 v37 a1,1 0 0 1 -1,1 h-37 a1,1 0 0 1 -1,-1 v-2 z"></path><path fill="#9f6cd3" d="M1229,229 a1,1 0 0 1 1,-1 h37 a1,1 0 0 1 1,1 v2 a36,36 0 0 1 -36,36 h-2 a1,1 0 0 1 -1,-1 v-37 z"></path><path fill="#5ca1cb" d="M1229,274 a1,1 0 0 1 1,-1 h2 a36,36 0 0 1 36,36 v2 a1,1 0 0 1 -1,1 h-37 a1,1 0 0 1 -1,-1 v-37 z"></path><path fill="#2bc7c4" d="M1229,320 a1,1 0 0 1 1,-1 h37 a1,1 0 0 1 1,1 v37 a1,1 0 0 1 -1,1 h-37 a1,1 0 0 1 -1,-1 v-37 z"></path><path fill="#5ca1cb" d="M1229,365 a1,1 0 0 1 1,-1 h37 a1,1 0 0 1 1,1 v2 a36,36 0 0 1 -36,36 h-2 a1,1 0 0 1 -1,-1 v-37 z"></path></svg>