<svg width="1000" height="1771" viewBox="0 0 1000 1771" fill="none" xmlns="http://www.w3.org/2000/svg">
<path d="M612.497 867.746C580.372 825.436 568.424 797.882 566.465 789.394C566.465 793.311 564.505 803.432 563.525 808.002C558.041 828.374 552.752 855.013 549.815 867.746C544.917 896.148 555.038 913.777 558.63 918.674C568.097 929.774 592.125 946.685 612.497 925.53C632.868 904.375 620.985 878.193 612.497 867.746Z" fill="#C22216"/>
<path d="M651.343 948.058C638.806 933.955 631.102 896.477 628.816 879.5C637.957 887.988 659.178 905.944 670.931 909.862C682.683 913.779 688.886 921.288 690.519 924.553C695.22 937.089 689.866 945.447 686.601 948.058C680.072 953.935 663.879 962.162 651.343 948.058Z" fill="#F07F3D"/>
<path d="M878.554 542.032C781.398 553.001 675.492 596.225 634.684 616.466C660.801 612.875 726.551 609.219 780.614 623.322C848.193 640.951 836.44 642.91 912.833 671.313C973.948 694.035 996.409 644.216 1000 616.466C1000 587.084 975.711 531.062 878.554 542.032Z" fill="#C22216"/>
<path d="M855.01 463.576C802.514 519.99 768.496 547.805 758.049 554.661C767.843 550.417 802.905 539.774 864.804 531.155C926.702 522.536 957.194 504.711 964.702 496.876C990.559 469.453 975.476 444.968 964.702 436.153C950.011 421.789 907.505 407.163 855.01 463.576Z" fill="#F07F3D"/>
<path d="M921.603 327.931C901.232 360.839 877.204 416.077 867.736 439.583C882.754 426.851 918.469 397.469 941.191 381.798C963.913 366.128 975.47 351.111 978.409 345.561C988.594 324.406 978.082 310.629 971.553 306.385C963.391 299.855 941.975 295.024 921.603 327.931Z" fill="#C2BB2D"/>
<path d="M477.823 145.42C531.102 174.41 561.399 241.075 569.887 270.783C551.864 246.494 530.385 228.016 521.898 221.813C516.021 217.569 499.568 207.514 480.763 201.246C461.959 194.977 451.38 181.658 448.441 175.781C439.822 139.739 464.438 140.523 477.823 145.42Z" fill="#267971"/>
<path d="M515.71 158.835C574.474 223.084 583.941 280.281 581.329 300.848L597.977 196.053C601.569 172.221 605.421 114.175 592.101 72.6482C578.781 31.1216 553.906 12.9048 543.133 8.98721C457.729 -22.3536 443.56 35.7575 447.151 68.7306C448.784 78.1982 456.554 101.247 474.575 117.701C492.596 134.155 509.507 151.98 515.71 158.835Z" fill="#F07F3D"/>
<path d="M667.149 59.2088L606.427 178.696C614.263 144.221 610.997 114.055 608.384 103.282C606.752 97.079 603.097 79.5804 601.53 59.2088C599.963 38.8373 611.324 23.9504 617.2 19.0534C626.341 12.524 647.757 2.99119 660.294 17.0946C672.83 31.1979 670.088 51.0471 667.149 59.2088Z" fill="#C2BB2D"/>
<path d="M694.427 78.7582C662.303 102.264 641.213 146.01 634.684 164.945C642.192 155.478 663.87 134.388 690.509 125.769C717.149 117.151 729.685 107.814 732.624 104.223C737.194 98.3462 743.593 84.2428 732.624 74.8406C721.654 65.4383 702.589 73.5347 694.427 78.7582Z" fill="#C22216"/>
<path d="M560.252 754.406C526.56 665.868 445.662 655.486 409.424 661.363C418.565 656.139 453.497 642.95 520.096 631.981C621.17 615.527 726.75 625.125 766.905 631.981C809.999 637.204 898.928 669.002 909.898 754.406C920.867 839.81 862.886 887.278 832.525 900.336C751.822 931.677 689.206 913.395 667.986 900.336C646.112 888.584 593.943 842.944 560.252 754.406Z" fill="#267971"/>
<path d="M570.05 486.762C534.791 563.547 463.948 619.159 430.975 636.135C531.265 618.114 600.737 601.203 622.937 595C730.279 562.092 815.226 481.389 844.282 445.152C867.461 421.646 910.881 351.913 899.128 261.024C878.757 144.28 780.294 123.582 733.609 127.826C688.231 130.764 597.473 166.806 597.473 287.468C597.473 408.13 577.885 469.785 570.05 486.762Z" fill="#90B6CB"/>
<path d="M303.13 423.598C372.863 571.683 322.391 681.18 288.439 717.418C412.237 640.633 462.119 605.113 471.585 596.952C544.452 532.703 572.463 465.059 577.36 439.268C589.44 401.724 595.969 310.575 525.452 246.326C454.935 182.077 388.99 183.645 364.832 192.459C315.209 207.803 233.397 275.512 303.13 423.598Z" fill="#C22216"/>
<path fill-rule="evenodd" clip-rule="evenodd" d="M0 1656.66L1.9588 1672.33H30.3614V1667.44L153.766 1649.81C158.336 1652.75 171.003 1658.62 185.106 1658.62L237.994 1741.87L234.076 1744.81L250.726 1770.27L266.397 1761.46L250.726 1736.97H247.788L196.859 1656.66C199.471 1655.03 205.086 1649.42 206.653 1640.01L276.191 1620.43L278.149 1625.32L304.593 1616.51L298.717 1599.86L272.273 1607.69L273.252 1611.61L205.674 1629.24C203.715 1623.36 197.643 1608.87 189.024 1597.9V1576.35V1575.37H186.086L185.106 1015.16H189.024V987.735H187.065V985.776H185.106V834.948H190.983V801.649H189.024V797.731C197.186 787.611 219.973 765.215 245.829 756.596C248.115 756.27 248.767 758.332 254.644 759.535C260.52 760.737 274.033 759.23 279.129 753.881C290.882 741.546 287.943 728.417 281.088 718.041C275.264 709.226 258.561 703.932 243.87 716.664C241.623 718.612 237.994 723.52 237.994 728.417C237.994 732.335 235.382 734.397 234.076 735.05C211.224 748.108 163.168 776.38 153.766 784.999C142.013 795.772 130.26 802.628 124.384 834.948C122.425 850.842 122.621 891.362 131.24 928.971L149.848 1018.1L176.292 1131.71L177.271 1575.37H169.436V1589.09H171.395V1601.82C166.171 1607.04 155.529 1621.6 154.745 1638.06L31.3408 1655.69L30.3614 1651.77L0 1656.66ZM141.034 928.971L176.292 1098.63L177.271 1015.16H173.354V987.735H175.313V985.776H177.271V834.948H172.374V801.649H174.333C174.333 794.793 162.58 786.958 151.807 795.772C143.188 802.824 137.116 814.604 136.137 820.257C129.868 866.485 136.789 911.994 141.034 928.971Z" fill="#C22216"/>
</svg>
