<svg width="94" height="46" viewBox="0 0 94 46" fill="none" xmlns="http://www.w3.org/2000/svg">
<path d="M89.5082 19.5611C88.8255 20.5206 88.159 21.8891 87.5086 23.6665C87.1222 24.7227 86.7616 25.8786 86.4267 27.1344L86.4943 27.0475L86.5619 26.9509C86.6392 26.8349 86.8195 26.5967 87.1029 26.236C87.1479 26.1781 87.2123 26.0944 87.2961 25.9849L87.4989 25.7337C87.6599 25.5212 87.8016 25.3377 87.9239 25.1831L87.1125 26.0332C87.602 25.3055 88.0978 24.5359 88.6001 23.7245L88.803 23.4154L89.0058 23.0773C89.1733 22.8197 89.3214 22.5846 89.4502 22.3721C89.7851 21.8183 90.0716 21.3095 90.3099 20.8459C90.6255 20.2276 90.8444 19.7028 90.9668 19.2713C91.0505 18.9944 91.0891 18.7819 91.0827 18.6338C91.0827 18.5951 91.0795 18.5597 91.073 18.5275C91.073 18.5017 91.0698 18.4824 91.0634 18.4695V18.4599L91.0537 18.4502L91.0344 18.4406C90.8927 18.389 90.7285 18.4084 90.5418 18.4985C90.2262 18.666 89.8817 19.0202 89.5082 19.5611ZM86.6682 28.1873C86.5136 28.3612 86.4363 28.4417 86.4363 28.4288C86.4363 28.3644 86.6167 28.1358 86.9773 27.743L87.1898 27.5208C87.2735 27.4242 87.3379 27.3501 87.383 27.2986C87.5247 27.1441 87.6181 27.0378 87.6631 26.9798C87.6567 26.9348 87.4442 27.1602 87.0256 27.656C86.8066 27.9072 86.6456 28.0907 86.5426 28.2066C86.3816 28.3805 86.2753 28.4771 86.2238 28.4964L86.5329 28.1294L86.8421 27.7526C87.1061 27.4177 87.3057 27.173 87.441 27.0185C87.5118 26.8768 87.3669 27.0249 87.0063 27.4628L86.9 27.5884L86.8034 27.714C86.7261 27.8106 86.6617 27.8879 86.6102 27.9458C86.4879 28.0875 86.4235 28.1487 86.417 28.1294C86.7583 27.7301 87.0964 27.3276 87.4313 26.9219C87.2123 27.1473 87.0835 27.2374 87.0449 27.1924L87.0256 27.1634C87.0127 27.1505 86.9998 27.1473 86.9869 27.1537C86.9547 27.1537 86.8936 27.1956 86.8034 27.2793C86.739 27.3308 86.6489 27.4016 86.5329 27.4918L86.4074 27.5981L86.2818 27.7043C86.1787 28.1229 86.095 28.4642 86.0306 28.7283L85.9823 28.9408L85.9437 29.163C86.1304 28.8989 86.5007 28.4256 87.0546 27.743C86.9258 27.8975 86.797 28.0456 86.6682 28.1873ZM85.8954 29.3851L85.8664 29.501C86.124 29.237 86.3204 29.0245 86.4557 28.8635C86.1916 29.1211 86.0049 29.295 85.8954 29.3851ZM89.3053 34.2923C89.8784 33.7385 90.2938 33.1396 90.5514 32.4956C90.706 32.1092 90.7833 31.7518 90.7833 31.4233C90.7833 31.3203 90.7704 31.2076 90.7446 31.0853L90.5901 31.0949C90.2681 31.1207 89.9493 31.1883 89.6337 31.2978C89.1121 31.4845 88.5873 31.7389 88.0592 32.0609C87.9368 32.1446 87.8274 32.2316 87.7308 32.3217L87.6148 32.4376L87.5086 32.5535C87.3991 32.6823 87.2961 32.8176 87.1995 32.9593C87.0578 33.1782 86.9612 33.3746 86.9097 33.5485C86.8646 33.6773 86.8453 33.7868 86.8517 33.8769C86.8581 33.8963 86.8163 33.9864 86.7261 34.1474C86.6682 34.2376 86.6199 34.3213 86.5812 34.3986C86.5233 34.5145 86.4718 34.6272 86.4267 34.7367C86.3623 34.8912 86.3236 35.0329 86.3108 35.1617C86.2979 35.2583 86.2979 35.3484 86.3108 35.4322C86.3236 35.5481 86.3655 35.6511 86.4363 35.7413C86.5007 35.825 86.5877 35.8894 86.6972 35.9345C86.768 35.9667 86.8549 35.9892 86.958 36.0021C87.0932 36.0214 87.2349 36.0214 87.383 36.0021C87.2928 35.9828 87.2606 35.957 87.2864 35.9248C87.3122 35.9055 87.3862 35.8701 87.5086 35.8186C87.6438 35.7735 87.7791 35.7155 87.9143 35.6447C88.0817 35.561 88.2363 35.4708 88.378 35.3742C88.6678 35.1746 88.9189 34.9427 89.1314 34.6787C89.3311 34.4275 89.389 34.2987 89.3053 34.2923ZM85.6732 30.496L85.6636 30.5733C85.6507 30.6828 85.6442 30.7729 85.6442 30.8438C85.6507 30.9017 85.6603 30.9436 85.6732 30.9693L85.7022 30.8631L85.7215 30.8148L85.7408 30.7761C85.7859 30.6731 85.8117 30.6119 85.8181 30.5926V30.5829L85.8567 30.5346L86.0499 30.3318L86.3301 30.0613C86.5233 29.8746 86.7197 29.7039 86.9193 29.5493C87.4281 29.1565 87.9175 28.8732 88.3876 28.6993C88.7354 28.5769 89.0702 28.5125 89.3922 28.5061C89.7915 28.4932 90.1715 28.5705 90.5321 28.7379C90.8541 28.886 91.1471 29.1018 91.4111 29.3851C91.6752 29.662 91.8684 29.9679 91.9907 30.3028C92.0938 30.5733 92.1582 30.8631 92.1839 31.1722C92.3256 31.243 92.4447 31.3139 92.5413 31.3847C92.3997 31.3074 92.3739 31.3106 92.4641 31.3944L92.5027 31.433L92.551 31.4716C92.5961 31.5103 92.6347 31.5457 92.6669 31.5779C92.7571 31.6681 92.8311 31.7486 92.8891 31.8194C93.0308 31.9933 93.1274 32.1317 93.1789 32.2348C93.2304 32.3314 93.2079 32.3314 93.1113 32.2348C93.0984 32.2219 93.0758 32.1994 93.0436 32.1672L93.005 32.1189L92.9664 32.0706C92.8826 31.9804 92.7989 31.8967 92.7152 31.8194C92.5671 31.6713 92.3932 31.5393 92.1936 31.4233C92.1936 31.7003 92.1646 31.9804 92.1066 32.2638C91.9907 32.7725 91.7879 33.2909 91.4981 33.819C91.3693 34.0444 91.2212 34.2698 91.0537 34.4952C90.9249 34.6819 90.7575 34.8848 90.5514 35.1037C90.1586 35.5288 89.7497 35.8797 89.3246 36.1567C88.7708 36.5173 88.217 36.7427 87.6631 36.8328C87.4893 36.8586 87.3154 36.8715 87.1415 36.8715H87.0063L86.8614 36.8618L86.7648 36.8425L86.7068 36.8328L86.6489 36.8232C86.5716 36.8039 86.4943 36.7813 86.417 36.7556C86.2238 36.6783 86.0532 36.572 85.905 36.4368C85.7312 36.2758 85.6056 36.0826 85.5283 35.8572C85.4704 35.6769 85.4382 35.4998 85.4317 35.3259C85.4317 35.2551 85.4382 35.1842 85.451 35.1134L85.4607 35.0265L85.4704 34.9395C85.509 34.7463 85.567 34.5628 85.6442 34.3889C85.67 34.3245 85.7022 34.2537 85.7408 34.1764L85.8471 33.9735C85.9694 33.7546 86.1208 33.526 86.3011 33.2877C86.6489 32.8305 87.0127 32.4408 87.3927 32.1189C87.5343 32.0029 87.6664 31.9063 87.7887 31.8291L87.9239 31.7518L88.0592 31.6842L88.2137 31.6165C88.4778 31.4942 88.7064 31.3944 88.8996 31.3171C89.4985 31.0917 90.0266 30.9532 90.4838 30.9017L90.6963 30.8824C90.6448 30.7407 90.5836 30.6216 90.5128 30.525C90.384 30.3575 90.2326 30.2223 90.0588 30.1193C89.8849 30.0227 89.7046 29.9776 89.5178 29.984C89.1701 29.9905 88.7837 30.145 88.3586 30.4477C87.9658 30.7117 87.5633 31.0692 87.1512 31.5199L87.0063 31.6938L86.7938 31.9353C86.6456 32.1156 86.5104 32.2927 86.388 32.4666C86.2399 32.6727 86.1079 32.8755 85.992 33.0752C85.9662 33.1138 85.9308 33.1718 85.8857 33.2491L85.7891 33.4326C85.7763 33.4583 85.7569 33.497 85.7312 33.5485L85.6732 33.6741L85.6249 33.7997L85.6056 33.8286L85.5959 33.8576C85.5831 33.8898 85.5734 33.9285 85.567 33.9735C85.1226 34.2183 84.7781 34.4855 84.5334 34.7753C84.4303 34.9041 84.3595 35.02 84.3208 35.1231C84.3015 35.181 84.2919 35.2325 84.2919 35.2776C84.2919 35.3098 84.2951 35.3356 84.3015 35.3549C84.3015 35.3613 84.2919 35.3581 84.2725 35.3452L84.2532 35.3259L84.2339 35.3066C83.9699 35.0748 83.7477 34.9234 83.5674 34.8526C83.4257 34.0218 83.4676 32.795 83.693 31.1722L83.7702 30.6119L83.8572 30.0806L83.9634 29.4334C84.0407 28.9891 84.1244 28.5576 84.2146 28.139L84.4947 27.0668L84.4851 27.0475L84.4754 27.0185C84.4754 26.9927 84.4754 26.9573 84.4754 26.9122L84.572 26.5162C84.6686 26.1749 84.7942 25.7563 84.9487 25.2604L85.0357 24.9706L85.1226 24.7001C85.187 24.494 85.2385 24.3298 85.2772 24.2075C85.3094 24.098 85.3029 24.0626 85.2578 24.1012C85.7924 22.414 86.3719 20.9714 86.9966 19.7736C87.5118 18.8978 88.0334 18.1894 88.5615 17.6485L88.5712 17.5325C89.0477 17.0109 89.5854 16.6696 90.1843 16.5086C90.5772 16.4056 90.9636 16.4023 91.3435 16.4989C91.4466 16.5183 91.5432 16.5472 91.6333 16.5859L91.7879 16.6438L91.8845 16.6921C92.1227 16.8081 92.3192 16.9433 92.4737 17.0979C92.6476 17.2846 92.7345 17.3715 92.7345 17.3587C92.7345 17.3522 92.7345 17.3426 92.7345 17.3297L92.7249 17.2814C92.712 17.2492 92.7088 17.2299 92.7152 17.2234C92.8633 17.4166 92.9728 17.6356 93.0436 17.8803C93.0952 18.0671 93.1274 18.2731 93.1402 18.4985C93.1531 18.8012 93.1209 19.1296 93.0436 19.4838C92.9406 19.9475 92.7539 20.4691 92.4834 21.0487C92.1292 21.8086 91.6269 22.678 90.9764 23.6569C90.0105 25.0994 88.8255 26.6417 87.4216 28.2839C87.2864 28.4449 87.0642 28.6735 86.7551 28.9698C86.6328 29.0792 86.4814 29.2177 86.3011 29.3851L86.0693 29.6073L85.8278 29.8295L85.7891 29.8585L85.7602 29.9937L85.6732 30.496Z" fill="url(#paint0_linear_50_379)"/>
<path d="M77.1041 34.5338L77.1234 34.5144L77.133 34.5048L77.1427 34.4951C77.1491 34.4887 77.1491 34.479 77.1427 34.4661L77.1137 34.4178C77.1137 34.4436 77.1105 34.4822 77.1041 34.5338ZM82.6874 36.2435L82.6778 36.2725C82.6778 36.279 82.6842 36.2886 82.6971 36.3015C82.7228 36.3337 82.71 36.3498 82.6584 36.3498C82.6327 36.3562 82.6037 36.3337 82.5715 36.2822C82.5457 36.2564 82.5136 36.2081 82.4749 36.1373L82.4266 36.0407L82.3687 35.9441C82.3236 35.8797 82.2721 35.8024 82.2141 35.7123L82.1465 35.606L82.0789 35.4997C81.9758 35.3452 81.8953 35.2357 81.8374 35.1713C81.715 35.0232 81.5894 34.9363 81.4606 34.9105C81.422 34.9041 81.3834 34.7881 81.3447 34.5627C81.3061 34.3695 81.2771 34.1635 81.2578 33.9445C81.1805 34.0604 81.0646 33.922 80.91 33.5291C80.7748 33.1685 80.6621 33.0268 80.5719 33.1041C80.5719 32.9818 80.5751 32.8111 80.5816 32.5921V32.312L80.5912 32.0319C80.5977 31.8902 80.5977 31.7775 80.5912 31.6938C80.5784 31.4813 80.5462 31.3589 80.4947 31.3267L80.485 31.2494L80.4753 31.1818C80.4753 31.1303 80.4753 31.1045 80.4753 31.1045C80.3787 31.3943 80.2596 31.7228 80.1179 32.0898L80.0406 32.2927L79.9634 32.4762C79.9118 32.605 79.8732 32.7113 79.8474 32.795C79.7508 33.059 79.6929 33.2458 79.6736 33.3553L79.6639 33.3649C79.6575 33.3714 79.6478 33.381 79.6349 33.3939L79.4997 33.5968V33.6064L79.5094 33.6257C79.5158 33.6386 79.5158 33.6547 79.5094 33.674L79.4224 33.8189C79.3387 33.9349 79.2228 34.0862 79.0747 34.2729L78.9877 34.3792L78.9104 34.4758C78.8525 34.5531 78.8042 34.6143 78.7655 34.6593C78.7398 34.7044 78.7462 34.7302 78.7849 34.7366C78.6561 34.8976 78.5337 35.0393 78.4178 35.1616L78.3019 35.2679L78.1763 35.3838C78.0733 35.474 77.9541 35.5577 77.8189 35.635C77.7158 35.6929 77.616 35.7348 77.5194 35.7606L77.4132 35.7895C77.3488 35.8024 77.2876 35.8121 77.2296 35.8185L77.1137 35.8282H77.0944L76.9881 35.8185C76.8078 35.7992 76.6436 35.7638 76.4955 35.7123C76.1349 35.5899 75.8451 35.3677 75.6261 35.0457C75.5359 34.9041 75.4651 34.7559 75.4136 34.6014C75.375 34.4855 75.3428 34.3534 75.317 34.2053C75.2848 34.0057 75.2719 33.7835 75.2784 33.5388L75.2011 33.5002C75.1818 33.307 75.1946 33.0784 75.2397 32.8143L75.2784 32.6598L75.3073 32.5052C75.3267 32.3828 75.3363 32.2734 75.3363 32.1768C75.3363 32.1188 75.3267 32.0931 75.3073 32.0995L75.2687 32.1091L75.2397 32.1188C75.3234 31.5135 75.4877 30.7085 75.7324 29.7039L75.8773 29.1243L76.0222 28.564C76.1316 28.1261 76.2154 27.759 76.2733 27.4628C76.2798 27.4048 76.3184 27.2921 76.3892 27.1247L76.4665 26.9218L76.5341 26.719C76.5663 26.6481 76.5985 26.587 76.6307 26.5354C76.6372 26.6063 76.6404 26.6803 76.6404 26.7576L76.65 26.5161L76.679 26.4871L76.6983 26.4678C76.7112 26.5451 76.7144 26.6481 76.708 26.7769V26.69L76.7177 26.5934C76.7241 26.5161 76.7241 26.4646 76.7177 26.4388C76.737 26.4968 76.7402 26.5998 76.7273 26.748L76.6983 26.9412L76.6887 27.0281L76.679 27.115C76.7627 26.8381 76.8271 26.748 76.8722 26.8446C76.9237 26.9798 76.927 27.2438 76.8819 27.6367L76.8915 27.5787L76.9012 27.5207L76.9205 27.4048C76.9398 27.3147 76.9527 27.2728 76.9592 27.2792C77.0042 27.2986 76.9978 27.4113 76.9398 27.6173L76.9012 27.7429L76.8722 27.8588C76.8465 27.9426 76.8304 27.9973 76.8239 28.0231C76.8561 28.0424 76.9012 27.9232 76.9592 27.6656L76.9881 27.5111L77.0171 27.3758C77.0429 27.2857 77.0654 27.2309 77.0847 27.2116L77.0654 27.4048L77.0461 27.598C77.0332 27.759 77.0107 27.8878 76.9785 27.9844C77.0107 28.0553 77.0429 27.9748 77.0751 27.7429L77.0944 27.6077L77.1137 27.4918C77.1266 27.4145 77.1395 27.3791 77.1524 27.3855C77.1266 27.5787 77.0912 27.7912 77.0461 28.0231C77.0912 27.9007 77.1427 27.846 77.2007 27.8588L77.2393 27.8685H77.2683C77.294 27.8685 77.3198 27.8427 77.3456 27.7912L77.4228 27.6753L77.5001 27.569C77.5581 27.4853 77.5999 27.4338 77.6257 27.4145C77.7094 27.363 77.7448 27.524 77.7319 27.8975C77.7448 28.0263 77.6933 28.3418 77.5774 28.8441C77.6482 28.7089 77.7223 28.5543 77.7996 28.3805C77.7867 28.8184 77.7674 29.2112 77.7416 29.559C77.7094 29.8681 77.6353 30.3382 77.5194 30.9693L77.4518 31.346L77.3939 31.7228C77.3423 31.9997 77.3037 32.2347 77.2779 32.4279L77.2586 32.5728C77.2393 32.7209 77.2264 32.8658 77.22 33.0075C77.2071 33.1878 77.2071 33.3553 77.22 33.5098C77.3101 33.4003 77.3971 33.2909 77.4808 33.1814C77.6611 32.9367 77.8511 32.6598 78.0507 32.3506C78.392 31.8355 78.7333 31.2687 79.0747 30.6505C79.2485 30.335 79.4095 30.0323 79.5576 29.7425L79.6832 29.501L79.7991 29.2595C79.8893 29.0663 79.9698 28.8763 80.0406 28.6896C80.266 28.7025 80.456 28.7089 80.6106 28.7089C80.6621 28.7025 80.7168 28.6992 80.7748 28.6992L80.8424 28.6896L80.9004 28.6799C80.9583 28.6735 81.0066 28.667 81.0453 28.6606L81.0936 28.6509L81.1129 28.6413C81.1322 28.6413 81.1451 28.6413 81.1515 28.6413C81.1773 28.6735 81.2578 28.7121 81.393 28.7572C81.5476 28.8087 81.818 28.886 82.2044 28.989L82.1175 29.53L82.0692 29.9937C82.0499 30.2834 82.0338 30.5604 82.0209 30.8244C82.0016 31.3331 81.9984 31.8387 82.0112 32.341C82.0177 32.5793 82.0273 32.8208 82.0402 33.0655L82.0789 33.5388C82.0982 33.7706 82.1239 33.9928 82.1561 34.2053C82.227 34.7012 82.3107 35.1133 82.4073 35.4418C82.4653 35.6285 82.5296 35.7895 82.6005 35.9248L82.6488 36.0214C82.6617 36.0407 82.6745 36.0632 82.6874 36.089L82.7067 36.1083L82.7164 36.1276L82.7357 36.1469C82.7035 36.1727 82.6874 36.2049 82.6874 36.2435Z" fill="url(#paint1_linear_50_379)"/>
<path d="M74.4099 29.9068L74.4195 29.984C74.4517 30.1386 74.471 30.2899 74.4775 30.438L74.4678 30.6216V30.7955C74.4549 30.9693 74.4324 31.1722 74.4002 31.404C74.3551 31.7325 74.2939 32.0995 74.2167 32.5052L74.1104 33.0269L74.0042 33.5485C73.8303 34.4114 73.7079 35.0844 73.6371 35.5674C73.5212 36.3337 73.4793 36.952 73.5115 37.4221C73.5373 37.7119 73.5823 37.9244 73.6467 38.0596C73.6918 38.1369 73.7369 38.1884 73.782 38.2142C73.7562 38.2206 73.7466 38.2367 73.753 38.2625C73.7659 38.2882 73.7981 38.314 73.8496 38.3398C73.8818 38.3591 73.9398 38.3816 74.0235 38.4074C74.0943 38.4267 74.0847 38.4428 73.9945 38.4557C73.943 38.4686 73.8786 38.4686 73.8013 38.4557C73.7111 38.4364 73.6467 38.4074 73.6081 38.3687C73.563 38.3237 73.5179 38.2593 73.4729 38.1755C73.4342 38.0918 73.3924 37.9695 73.3473 37.8085C73.3022 37.6604 73.2636 37.4865 73.2314 37.2868L73.2024 37.0357L73.1734 36.7942L73.1444 36.5817L73.1251 36.3788C73.1122 36.2371 73.0993 36.1244 73.0865 36.0407C73.035 35.6865 72.9577 35.4547 72.8546 35.3452C72.8224 35.3195 72.8418 35.0908 72.9126 34.6594C72.977 34.2794 73.0543 33.8834 73.1444 33.4712C73.0672 33.5807 73.0189 33.5356 72.9995 33.336C72.9931 33.2072 72.9995 32.9496 73.0189 32.5632L73.0285 32.341V32.1285C73.035 31.9675 73.0382 31.8355 73.0382 31.7325C73.0253 31.4813 72.9867 31.3718 72.9223 31.404C72.9802 31.0498 73.0156 30.7729 73.0285 30.5733C73.035 30.4123 73.0253 30.2899 72.9995 30.2062L72.9899 30.1772C72.9255 30.1965 72.8353 30.2481 72.7194 30.3318C72.6228 30.4091 72.5165 30.5024 72.4006 30.6119C72.2203 30.7922 72.0271 31.0112 71.821 31.2688C71.4668 31.7518 71.0547 32.4151 70.5846 33.2587C70.2819 33.761 69.9986 34.2472 69.7345 34.7173C69.683 34.9556 69.6283 35.2164 69.5703 35.4998C69.551 35.5964 69.5252 35.7091 69.493 35.8379L69.4544 36.0021L69.4254 36.147L69.0487 36.0021L68.9521 36.1953L67.7929 35.7413L67.8122 35.635L67.8412 35.5288L67.4838 35.3839L67.8509 34.6884L68.0634 34.3406C68.2115 33.497 68.3274 32.7661 68.4111 32.1478C68.4948 31.491 68.5496 30.9146 68.5753 30.4187C68.5882 30.071 68.5689 29.8198 68.5174 29.6653C68.5174 29.6395 68.5109 29.6137 68.4981 29.588C68.4787 29.5687 68.453 29.5622 68.4208 29.5687L68.4015 29.6073L68.3821 29.6459L68.3435 29.6846C68.2984 29.7039 68.2598 29.7264 68.2276 29.7522C68.0215 29.9325 67.8444 30.1128 67.6963 30.2931C67.6448 30.3575 67.6448 30.3865 67.6963 30.3801C67.0781 31.1078 66.4244 32.019 65.7354 33.1138C65.3361 33.6676 64.998 34.1667 64.7211 34.6111L64.7501 34.698C64.6857 34.8397 64.6019 34.9975 64.4989 35.1713L64.3733 35.3935L64.2381 35.606C64.0256 35.9602 63.8775 36.2661 63.7937 36.5237C63.768 36.6074 63.7648 36.6493 63.7841 36.6493H63.8034L63.8227 36.6396C63.842 36.6332 63.8549 36.6332 63.8614 36.6396L63.8324 36.6879L63.7261 36.6396L63.7068 36.6783L61.9101 35.9538L61.9294 35.9152L61.8135 35.8669C62.2449 34.8365 62.6571 33.4809 63.0499 31.8001C63.417 30.1901 63.6392 28.783 63.7165 27.5787C63.7229 27.5015 63.7326 27.3984 63.7454 27.2696L63.7744 27.0861L63.7937 26.8929C63.8388 26.5451 63.8581 26.2521 63.8517 26.0138L63.8807 25.5888C63.9193 25.7305 63.9483 25.8947 63.9676 26.0815L63.929 25.7917C63.9161 25.6822 63.9032 25.592 63.8903 25.5212L63.9 25.386C63.9644 25.5856 64.0127 25.8303 64.0449 26.1201C64.032 25.9849 64.0159 25.8496 63.9966 25.7144C63.9708 25.547 63.9419 25.4214 63.9097 25.3377V25.328C63.9805 25.4954 64.0288 25.7337 64.0546 26.0428C64.061 26.1587 64.0674 26.2908 64.0739 26.4389C64.0803 26.5419 64.0835 26.6643 64.0835 26.806C64.1029 26.4711 64.1222 26.2682 64.1415 26.1974C64.1544 26.1201 64.1801 26.1298 64.2188 26.2264C64.2574 26.3423 64.2896 26.5258 64.3154 26.777C64.3411 27.0732 64.3508 27.3952 64.3443 27.743C64.3443 27.6914 64.3476 27.6206 64.354 27.5304V27.4049L64.3637 27.2889C64.3701 27.1151 64.3765 27.0313 64.383 27.0378C64.4345 27.0764 64.4409 27.2954 64.4023 27.6947L64.3733 27.9362L64.3443 28.168C64.3186 28.3354 64.3057 28.4417 64.3057 28.4868C64.3443 28.5254 64.383 28.2903 64.4216 27.7816L64.4409 27.4918L64.4506 27.3469L64.4603 27.2213C64.4731 27.0346 64.486 26.9219 64.4989 26.8832L64.5086 27.26V27.6367C64.5021 27.9201 64.486 28.1648 64.4603 28.3708C64.4796 28.4481 64.4957 28.432 64.5086 28.3225C64.5214 28.2324 64.5343 28.0907 64.5472 27.8975L64.5569 27.6367V27.5208L64.5665 27.4145C64.573 27.2664 64.5826 27.1956 64.5955 27.202C64.5826 27.5884 64.5569 27.9973 64.5182 28.4288C64.5633 28.1841 64.618 28.0682 64.6824 28.081L64.7114 28.0907C64.7243 28.0971 64.7372 28.0971 64.7501 28.0907C64.7758 28.0714 64.7984 28.0134 64.8177 27.9168L64.895 27.685L64.9529 27.4532C65.0044 27.2793 65.0431 27.173 65.0688 27.1344C65.101 27.07 65.13 27.1022 65.1558 27.231C65.188 27.3855 65.2041 27.6496 65.2041 28.0231C65.2363 28.3451 65.1847 28.9472 65.0495 29.8295C65.1332 29.5332 65.2137 29.2241 65.291 28.9021C65.2846 29.3078 65.262 29.7651 65.2234 30.2738L65.3779 30.071C65.6871 29.6717 65.9865 29.3078 66.2763 28.9794C66.4631 28.7798 66.6369 28.6027 66.7979 28.4481L66.9525 28.3032L67.0588 28.2066L67.1843 28.1004C67.3196 27.9844 67.4838 27.8621 67.677 27.7333C68.0376 27.5015 68.3821 27.363 68.7106 27.3179C69.0905 27.2664 69.419 27.334 69.6959 27.5208C69.9535 27.7075 70.1467 27.978 70.2755 28.3322C70.3849 28.6349 70.4429 29.018 70.4493 29.4817V29.7908L70.4397 30.0323L70.4204 30.3897L70.401 30.6119L70.3817 30.8244C70.5878 30.5475 70.7778 30.3092 70.9517 30.1096C71.293 29.7103 71.5956 29.4077 71.8597 29.2016C71.9949 29.0985 72.1237 29.0148 72.2461 28.9504C72.3362 28.8989 72.4296 28.8603 72.5262 28.8345C72.5842 28.8152 72.6486 28.7959 72.7194 28.7766C72.7516 28.7701 72.7935 28.7637 72.845 28.7572H72.9029L72.9319 28.7476H72.9512C73.0156 28.7476 73.0575 28.7476 73.0768 28.7476L73.1444 28.7572C73.2024 28.7572 73.27 28.7669 73.3473 28.7862C73.431 28.8055 73.5018 28.8281 73.5598 28.8538C73.7723 28.944 73.9526 29.0792 74.1007 29.2595C74.2038 29.3948 74.2811 29.5332 74.3326 29.6749C74.3519 29.72 74.3712 29.7747 74.3905 29.8391L74.4099 29.9068Z" fill="url(#paint2_linear_50_379)"/>
<path d="M56.4908 34.5338L56.5101 34.5144L56.5198 34.5048L56.5294 34.4951C56.5359 34.4887 56.5359 34.479 56.5294 34.4661L56.5004 34.4178C56.5004 34.4436 56.4972 34.4822 56.4908 34.5338ZM62.0741 36.2435L62.0645 36.2725C62.0645 36.279 62.0709 36.2886 62.0838 36.3015C62.1096 36.3337 62.0967 36.3498 62.0452 36.3498C62.0194 36.3562 61.9904 36.3337 61.9582 36.2822C61.9325 36.2564 61.9003 36.2081 61.8616 36.1373L61.8133 36.0407L61.7554 35.9441C61.7103 35.8797 61.6588 35.8024 61.6008 35.7123L61.5332 35.606L61.4656 35.4997C61.3625 35.3452 61.282 35.2357 61.2241 35.1713C61.1017 35.0232 60.9761 34.9363 60.8474 34.9105C60.8087 34.9041 60.7701 34.7881 60.7314 34.5627C60.6928 34.3695 60.6638 34.1635 60.6445 33.9445C60.5672 34.0604 60.4513 33.922 60.2967 33.5291C60.1615 33.1685 60.0488 33.0268 59.9586 33.1041C59.9586 32.9818 59.9619 32.8111 59.9683 32.5921V32.312L59.978 32.0319C59.9844 31.8902 59.9844 31.7775 59.978 31.6938C59.9651 31.4813 59.9329 31.3589 59.8814 31.3267L59.8717 31.2494L59.8621 31.1818C59.8621 31.1303 59.8621 31.1045 59.8621 31.1045C59.7655 31.3943 59.6463 31.7228 59.5046 32.0898L59.4274 32.2927L59.3501 32.4762C59.2986 32.605 59.2599 32.7113 59.2342 32.795C59.1376 33.059 59.0796 33.2458 59.0603 33.3553L59.0506 33.3649C59.0442 33.3714 59.0345 33.381 59.0216 33.3939L58.8864 33.5968V33.6064L58.8961 33.6257C58.9025 33.6386 58.9025 33.6547 58.8961 33.674L58.8091 33.8189C58.7254 33.9349 58.6095 34.0862 58.4614 34.2729L58.3744 34.3792L58.2972 34.4758C58.2392 34.5531 58.1909 34.6143 58.1523 34.6593C58.1265 34.7044 58.1329 34.7302 58.1716 34.7366C58.0428 34.8976 57.9204 35.0393 57.8045 35.1616L57.6886 35.2679L57.563 35.3838C57.46 35.474 57.3408 35.5577 57.2056 35.635C57.1026 35.6929 57.0027 35.7348 56.9061 35.7606L56.7999 35.7895C56.7355 35.8024 56.6743 35.8121 56.6164 35.8185L56.5004 35.8282H56.4811L56.3749 35.8185C56.1945 35.7992 56.0303 35.7638 55.8822 35.7123C55.5216 35.5899 55.2318 35.3677 55.0128 35.0457C54.9227 34.9041 54.8518 34.7559 54.8003 34.6014C54.7617 34.4855 54.7295 34.3534 54.7037 34.2053C54.6715 34.0057 54.6586 33.7835 54.6651 33.5388L54.5878 33.5002C54.5685 33.307 54.5814 33.0784 54.6264 32.8143L54.6651 32.6598L54.6941 32.5052C54.7134 32.3828 54.723 32.2734 54.723 32.1768C54.723 32.1188 54.7134 32.0931 54.6941 32.0995L54.6554 32.1091L54.6264 32.1188C54.7102 31.5135 54.8744 30.7085 55.1191 29.7039L55.264 29.1243L55.4089 28.564C55.5184 28.1261 55.6021 27.759 55.66 27.4628C55.6665 27.4048 55.7051 27.2921 55.776 27.1247L55.8532 26.9218L55.9208 26.719C55.953 26.6481 55.9852 26.587 56.0174 26.5354C56.0239 26.6063 56.0271 26.6803 56.0271 26.7576L56.0368 26.5161L56.0657 26.4871L56.0851 26.4678C56.0979 26.5451 56.1012 26.6481 56.0947 26.7769V26.69L56.1044 26.5934C56.1108 26.5161 56.1108 26.4646 56.1044 26.4388C56.1237 26.4968 56.1269 26.5998 56.114 26.748L56.0851 26.9412L56.0754 27.0281L56.0657 27.115C56.1495 26.8381 56.2139 26.748 56.2589 26.8446C56.3105 26.9798 56.3137 27.2438 56.2686 27.6367L56.2783 27.5787L56.2879 27.5207L56.3072 27.4048C56.3266 27.3147 56.3394 27.2728 56.3459 27.2792C56.391 27.2986 56.3845 27.4113 56.3266 27.6173L56.2879 27.7429L56.2589 27.8588C56.2332 27.9426 56.2171 27.9973 56.2106 28.0231C56.2428 28.0424 56.2879 27.9232 56.3459 27.6656L56.3749 27.5111L56.4038 27.3758C56.4296 27.2857 56.4521 27.2309 56.4715 27.2116L56.4521 27.4048L56.4328 27.598C56.4199 27.759 56.3974 27.8878 56.3652 27.9844C56.3974 28.0553 56.4296 27.9748 56.4618 27.7429L56.4811 27.6077L56.5004 27.4918C56.5133 27.4145 56.5262 27.3791 56.5391 27.3855C56.5133 27.5787 56.4779 27.7912 56.4328 28.0231C56.4779 27.9007 56.5294 27.846 56.5874 27.8588L56.626 27.8685H56.655C56.6808 27.8685 56.7065 27.8427 56.7323 27.7912L56.8096 27.6753L56.8868 27.569C56.9448 27.4853 56.9866 27.4338 57.0124 27.4145C57.0961 27.363 57.1315 27.524 57.1187 27.8975C57.1315 28.0263 57.08 28.3418 56.9641 28.8441C57.0349 28.7089 57.109 28.5543 57.1863 28.3805C57.1734 28.8184 57.1541 29.2112 57.1283 29.559C57.0961 29.8681 57.0221 30.3382 56.9061 30.9693L56.8385 31.346L56.7806 31.7228C56.7291 31.9997 56.6904 32.2347 56.6647 32.4279L56.6453 32.5728C56.626 32.7209 56.6131 32.8658 56.6067 33.0075C56.5938 33.1878 56.5938 33.3553 56.6067 33.5098C56.6969 33.4003 56.7838 33.2909 56.8675 33.1814C57.0478 32.9367 57.2378 32.6598 57.4374 32.3506C57.7788 31.8355 58.1201 31.2687 58.4614 30.6505C58.6353 30.335 58.7963 30.0323 58.9444 29.7425L59.0699 29.501L59.1859 29.2595C59.276 29.0663 59.3565 28.8763 59.4274 28.6896C59.6528 28.7025 59.8427 28.7089 59.9973 28.7089C60.0488 28.7025 60.1035 28.6992 60.1615 28.6992L60.2291 28.6896L60.2871 28.6799C60.345 28.6735 60.3933 28.667 60.432 28.6606L60.4803 28.6509L60.4996 28.6413C60.5189 28.6413 60.5318 28.6413 60.5382 28.6413C60.564 28.6735 60.6445 28.7121 60.7797 28.7572C60.9343 28.8087 61.2048 28.886 61.5912 28.989L61.5042 29.53L61.4559 29.9937C61.4366 30.2834 61.4205 30.5604 61.4076 30.8244C61.3883 31.3331 61.3851 31.8387 61.398 32.341C61.4044 32.5793 61.4141 32.8208 61.4269 33.0655L61.4656 33.5388C61.4849 33.7706 61.5107 33.9928 61.5429 34.2053C61.6137 34.7012 61.6974 35.1133 61.794 35.4418C61.852 35.6285 61.9164 35.7895 61.9872 35.9248L62.0355 36.0214C62.0484 36.0407 62.0613 36.0632 62.0741 36.089L62.0935 36.1083L62.1031 36.1276L62.1224 36.1469C62.0902 36.1727 62.0741 36.2049 62.0741 36.2435Z" fill="url(#paint3_linear_50_379)"/>
<path d="M51.825 42.7349C52.7781 42.0201 53.4769 41.1829 53.9212 40.2234C54.1402 39.7468 54.2851 39.2477 54.3559 38.7261C54.3752 38.5844 54.3913 38.4299 54.4042 38.2624C54.3205 38.256 54.1756 38.2463 53.9695 38.2335C53.9051 38.227 53.7989 38.2174 53.6507 38.2045L53.4865 38.1948L53.303 38.1755C52.659 38.124 52.1599 38.0982 51.8057 38.0982C51.9667 38.1562 51.9152 38.2077 51.6512 38.2528C51.561 38.2721 51.4065 38.2979 51.1875 38.3301L50.8977 38.3687L50.5982 38.417C50.1732 38.4878 49.7997 38.5683 49.4777 38.6585C49.1364 38.7615 48.9979 38.8388 49.0623 38.8903C48.6051 38.9676 48.2123 39.0449 47.8838 39.1222C47.4266 39.2381 47.0241 39.3765 46.6764 39.5375C45.7683 39.9497 45.134 40.4423 44.7734 41.0155C44.5158 41.4276 44.4546 41.8623 44.5898 42.3196C44.7122 42.7317 44.9859 43.0988 45.4109 43.4208C45.8746 43.7814 46.393 44.0165 46.9662 44.1259C47.4878 44.2225 48.0609 44.2193 48.6856 44.1163C49.8061 43.9167 50.8526 43.4562 51.825 42.7349ZM56.2975 37.7312C57.5919 37.9759 59.0699 38.3365 60.7314 38.8131C60.5317 38.7809 60.6509 38.8517 61.0888 39.0256C61.3078 39.1157 61.4462 39.1769 61.5042 39.2091C61.6008 39.2542 61.5814 39.2671 61.4462 39.2477C61.3561 39.2284 60.9375 39.1093 60.1904 38.8903C59.8298 38.7809 59.5271 38.6939 59.2824 38.6295C58.9411 38.5329 58.6481 38.4589 58.4034 38.4073C57.6113 38.2592 56.9093 38.1594 56.2975 38.1079L56.2879 38.1948C56.2428 38.9934 56.0818 39.7468 55.8049 40.4552C55.309 41.7174 54.4944 42.8122 53.361 43.7396C52.5238 44.4222 51.6029 44.9503 50.5982 45.3238C50.2312 45.459 49.8609 45.5685 49.4874 45.6522C49.2233 45.7166 48.9625 45.7681 48.7049 45.8068C48.0803 45.8712 47.4781 45.8551 46.8985 45.7585C46.2739 45.6619 45.6846 45.4526 45.1308 45.1306C44.5254 44.7699 44.0392 44.332 43.6722 43.8168C43.2149 43.1728 43.0153 42.4741 43.0733 41.7207C43.1183 41.0187 43.4178 40.3618 43.9716 39.7501C44.3451 39.3315 44.8152 38.9515 45.382 38.6102C45.8843 38.314 46.4059 38.0757 46.9468 37.8954C47.4427 37.7344 47.9643 37.6024 48.5117 37.4993C50.2247 37.1773 52.1792 37.1548 54.3752 37.4317L54.3656 37.3254L54.3463 37.2192C54.3076 36.9101 54.2239 36.6267 54.0951 36.3691H54.0758L54.0565 36.3595C54.0371 36.3466 54.0146 36.3273 53.9888 36.3015C53.9244 36.2049 53.8665 36.1276 53.815 36.0697C53.6282 35.825 53.3674 35.6124 53.0325 35.4321C52.7427 35.2711 52.4465 35.1584 52.1438 35.094C52.0408 35.0811 52.0086 35.094 52.0472 35.1327C51.7317 35.0683 51.3936 35.0361 51.0329 35.0361C50.9879 35.0361 50.9009 35.0361 50.7721 35.0361C50.624 35.049 50.463 35.0618 50.2891 35.0747C49.819 35.1198 49.4037 35.1906 49.043 35.2872C48.6051 35.3838 48.1125 35.5255 47.5651 35.7123L47.3526 35.7799L47.1304 35.8572C46.9436 35.928 46.7987 35.9795 46.6957 36.0117C46.3608 36.1212 46.1419 36.163 46.0388 36.1373C45.9809 36.1373 45.9197 36.1308 45.8553 36.118L45.6911 36.089C45.5751 36.0697 45.4914 36.0471 45.4399 36.0214C45.3884 36.0021 45.3401 35.9731 45.295 35.9344L45.2467 35.8958L45.1984 35.8572C45.1533 35.8185 45.1147 35.7734 45.0825 35.7219L45.0535 35.6736L45.0149 35.6253L45.0052 35.606L44.9956 35.5963C44.9827 35.577 44.9666 35.5384 44.9473 35.4804C44.9279 35.4418 44.9183 35.4031 44.9183 35.3645V35.2872C44.9247 35.1971 44.9408 35.1005 44.9666 34.9974L44.8603 35.0071L44.87 34.9202L44.899 34.8139C44.9183 34.7366 44.944 34.6626 44.9762 34.5917C45.0728 34.3985 45.2467 34.1924 45.4979 33.9735C45.6202 33.864 45.7844 33.7352 45.9905 33.5871L46.2803 33.3746L46.5798 33.1717L47.1883 32.737L47.7969 32.2927C48.0094 32.1317 48.0931 32.0544 48.0481 32.0608C48.0416 32.0673 48.0287 32.0737 48.0094 32.0802L47.9515 32.0995C47.9064 32.1124 47.8806 32.1156 47.8742 32.1091C48.3443 31.7743 48.7629 31.4684 49.13 31.1915L49.7772 30.6795C50.2022 30.3382 50.5725 30.0162 50.888 29.7135C51.2809 29.34 51.5803 29.0051 51.7864 28.7089C51.8959 28.5479 51.9732 28.3998 52.0182 28.2645L52.0279 28.2356C51.9442 28.2162 51.854 28.2066 51.7574 28.2066C51.4097 28.1937 50.9782 28.2484 50.463 28.3708C49.5421 28.5898 48.6437 28.9279 47.7679 29.3851C47.7228 29.4108 47.6649 29.4398 47.594 29.472L47.4974 29.5203L47.3912 29.5686C47.2109 29.6588 47.0595 29.7393 46.9372 29.8101C46.5443 30.0226 46.261 30.2255 46.0871 30.4187C45.9905 30.496 45.9358 30.5636 45.9229 30.6215C45.91 30.5765 45.9165 30.5249 45.9422 30.467C45.9551 30.4219 45.9905 30.3672 46.0485 30.3028C45.9841 30.38 45.9422 30.4412 45.9229 30.4863C45.8971 30.5443 45.8971 30.6022 45.9229 30.6602C45.9229 30.6859 45.9261 30.7149 45.9326 30.7471C45.8553 30.6763 45.8295 30.5926 45.8553 30.496C45.8746 30.4187 45.9326 30.3253 46.0292 30.2158C45.9261 30.3382 45.8649 30.4348 45.8456 30.5056C45.8263 30.5765 45.8424 30.6473 45.8939 30.7181C45.8424 30.6602 45.8199 30.6022 45.8263 30.5443C45.8327 30.467 45.8778 30.3736 45.9615 30.2641C46.0388 30.1611 46.1515 30.0516 46.2996 29.9357C46.4027 29.8455 46.5282 29.7457 46.6764 29.6362C46.5926 29.6878 46.5121 29.7425 46.4349 29.8005C46.3705 29.8391 46.3093 29.881 46.2513 29.926C46.1097 30.0226 46.0356 30.0741 46.0292 30.0806C45.9326 30.145 45.9229 30.116 46.0002 29.9937C46.0839 29.8584 46.261 29.6813 46.5315 29.4624C46.8535 29.2048 47.2238 28.9633 47.6423 28.7379C47.5715 28.7701 47.4813 28.8184 47.3719 28.8828L47.227 28.9601L47.0917 29.0373C46.8792 29.1597 46.7762 29.2144 46.7826 29.2015C46.8019 29.1049 47.0595 28.944 47.5554 28.7186L47.8645 28.5833C47.9418 28.5447 48.0384 28.5028 48.1543 28.4577C48.3926 28.3611 48.531 28.3032 48.5697 28.2839C48.5826 28.2517 48.4924 28.2742 48.2992 28.3515C48.106 28.4288 47.8871 28.5254 47.6423 28.6413C47.5329 28.6992 47.4137 28.7636 47.2849 28.8345L47.1111 28.9214L46.9565 29.0084C46.7182 29.1436 46.5798 29.2144 46.5411 29.2209C47.2109 28.7636 47.813 28.432 48.3475 28.2259C48.4441 28.1551 48.4184 28.1486 48.2702 28.2066C48.1286 28.2645 47.945 28.3483 47.7196 28.4577C47.6295 28.5028 47.5232 28.5576 47.4009 28.622L47.256 28.7089L47.1304 28.7765C46.9501 28.8796 46.8631 28.9214 46.8696 28.9021C47.3268 28.6316 47.8323 28.374 48.3862 28.1293C48.0642 28.2517 47.8967 28.2806 47.8838 28.2162L47.8742 28.1873C47.8742 28.1744 47.8677 28.1647 47.8549 28.1583C47.8162 28.1518 47.7325 28.1679 47.6037 28.2066C47.5135 28.2323 47.4073 28.2645 47.2849 28.3032C47.2012 28.3354 47.095 28.374 46.9662 28.4191C46.7214 28.5028 46.5733 28.5511 46.5218 28.564C46.4832 28.5704 46.4671 28.5608 46.4735 28.535C46.4864 28.5093 46.525 28.4674 46.5894 28.4094C46.7697 28.2549 47.0853 28.052 47.5361 27.8009C47.7422 27.6721 48.0545 27.524 48.4731 27.3565C48.9625 27.1569 49.4487 26.9959 49.9317 26.8735C49.5067 26.9379 49.0656 27.0378 48.6083 27.173C49.1364 26.9347 49.6419 26.7415 50.1249 26.5934C50.7625 26.4066 51.3324 26.3068 51.8347 26.2939C52.0665 26.2939 52.2533 26.3068 52.395 26.3326C52.6268 26.3712 52.8522 26.4421 53.0712 26.5451C53.3674 26.6868 53.5992 26.8929 53.7667 27.1633L53.8343 27.2792L53.8922 27.3952L53.9405 27.5111L53.9599 27.569L53.9695 27.598L53.9792 27.6753L53.9888 27.7043L53.9985 27.7236C54.0049 27.7494 54.0082 27.7751 54.0082 27.8009C54.0275 27.9104 54.0404 28.0005 54.0468 28.0713C54.0597 28.5221 53.9309 28.9987 53.6604 29.501C53.493 29.8101 53.2579 30.1418 52.9552 30.496C52.5495 30.979 52.0118 31.5006 51.3421 32.0608C51.0909 32.2734 50.814 32.4955 50.5113 32.7274L50.3857 32.824L50.3374 32.8626L50.0187 33.0655L49.9221 33.1427L49.8738 33.1814L49.8641 33.2007V33.2104H49.8738H49.8931L50.1442 33.1234C50.2473 33.0977 50.3439 33.0751 50.434 33.0558C50.492 33.0494 50.5467 33.0461 50.5982 33.0461L50.8397 33.0365H51.1199C51.326 33.0429 51.5224 33.0558 51.7091 33.0751C52.1277 33.1138 52.5238 33.191 52.8973 33.307C53.3159 33.4293 53.699 33.5871 54.0468 33.7803C54.8904 34.2375 55.499 34.8815 55.8725 35.7123C56.143 36.3112 56.2847 36.9841 56.2975 37.7312ZM45.9422 30.7761L45.9326 30.7664L45.9229 30.7568L45.9422 30.7761Z" fill="url(#paint4_linear_50_379)"/>
<path d="M42.0978 33.7513C42.188 33.7062 42.2814 33.6418 42.378 33.5581C42.6098 33.352 42.8191 33.0719 43.0058 32.7177C43.3085 32.1639 43.4953 31.5489 43.5661 30.8727C42.8191 30.8083 42.1332 30.6312 41.5086 30.3414C41.2445 30.2255 41.0159 30.1064 40.8227 29.984C40.6038 29.8294 40.4363 29.6878 40.3204 29.559C40.1337 29.8359 40.0049 30.0548 39.934 30.2158C40.0499 30.0355 40.1401 29.9228 40.2045 29.8777C40.256 29.8391 40.2753 29.8584 40.2625 29.9357C40.2496 29.9937 40.2109 30.116 40.1465 30.3028L40.1079 30.4283L40.0596 30.5636C40.021 30.6859 39.9855 30.7922 39.9533 30.8824C39.9855 30.7986 40.021 30.7117 40.0596 30.6215C40.1111 30.5185 40.1401 30.4702 40.1465 30.4766C40.1723 30.5153 40.1304 30.6505 40.021 30.8824L39.9533 31.0176L39.8857 31.1432C39.8471 31.2333 39.8245 31.2977 39.8181 31.3364C39.8374 31.3557 39.905 31.2204 40.021 30.9307C40.0789 30.789 40.1272 30.6827 40.1659 30.6119C40.2174 30.5088 40.2592 30.4509 40.2914 30.438C40.2464 30.541 40.1916 30.6859 40.1272 30.8727L40.0596 31.0949L39.9823 31.2977C39.9952 31.3814 40.0435 31.2945 40.1272 31.0369L40.1755 30.892C40.1948 30.8405 40.2109 30.7986 40.2238 30.7664C40.256 30.6763 40.2786 30.6409 40.2914 30.6602C40.1948 30.892 40.1079 31.1239 40.0306 31.3557C40.1079 31.2204 40.1723 31.1657 40.2238 31.1915L40.2528 31.2011L40.2914 31.2108C40.3172 31.2108 40.3462 31.185 40.3784 31.1335L40.4846 31.0273L40.5812 30.921C40.6585 30.8502 40.7132 30.8083 40.7454 30.7954C40.8356 30.7697 40.8324 30.9403 40.7358 31.3074C40.7358 31.3653 40.71 31.4941 40.6585 31.6938L40.6199 31.8194L40.5909 31.9546L40.5233 32.2444C40.6005 32.0834 40.6778 31.9321 40.7551 31.7904C40.7165 32.1961 40.7229 32.5664 40.7744 32.9013C40.8066 33.352 40.9 33.629 41.0546 33.732C41.119 33.7835 41.2123 33.8254 41.3347 33.8576C41.4957 33.8898 41.6438 33.893 41.779 33.8672L41.8756 33.8383C41.9465 33.8189 42.0205 33.79 42.0978 33.7513ZM40.2625 29.501L40.2528 29.4817L40.1079 29.7135L40.1852 29.6073L40.2625 29.501ZM40.1562 29.7811C40.1884 29.7232 40.2399 29.6459 40.3108 29.5493L40.3011 29.5396L40.1562 29.7811ZM41.779 28.4577C41.7082 28.4835 41.647 28.5157 41.5955 28.5543C41.5762 28.5672 41.5665 28.5769 41.5665 28.5833V28.593C41.5472 28.6059 41.544 28.622 41.5569 28.6413L41.5665 28.6509C41.5665 28.6509 41.5794 28.6638 41.6052 28.6896C41.6631 28.7604 41.7565 28.8409 41.8853 28.9311C42.2524 29.1758 42.7676 29.3303 43.4309 29.3947C43.36 29.1822 43.2699 29.0116 43.1604 28.8828C42.9414 28.6187 42.6999 28.4642 42.4359 28.4191C42.2041 28.3676 41.9851 28.3805 41.779 28.4577ZM45.3822 29.3271C46.2902 29.179 47.1531 28.9021 47.971 28.4964C47.913 28.5543 47.971 28.5608 48.1449 28.5157L48.2415 28.4964C48.2737 28.4899 48.2994 28.4867 48.3187 28.4867C48.3638 28.4867 48.367 28.5028 48.3284 28.535C48.2898 28.5865 48.1481 28.6638 47.9034 28.7669L47.7391 28.8345L47.5749 28.9021C47.4397 28.9601 47.3367 29.0051 47.2658 29.0373C46.4673 29.4559 46.0455 29.7844 46.0004 30.0226C45.9939 30.0613 45.8394 30.1096 45.5367 30.1675C45.5367 30.3736 45.5238 30.6087 45.4981 30.8727C45.4916 30.95 45.482 31.053 45.4691 31.1818L45.4498 31.317L45.4401 31.4523C45.4337 31.5102 45.4498 31.5296 45.4884 31.5102C45.3661 32.3345 45.1117 33.1073 44.7253 33.8286C44.4548 34.2343 44.1457 34.5853 43.7979 34.8815L43.8173 34.9588C43.5017 35.2937 42.9543 35.5674 42.1751 35.7799C42.0849 35.8056 42.0463 35.8282 42.0592 35.8475L42.0882 35.8765C42.101 35.8829 42.1075 35.8926 42.1075 35.9055C41.779 35.957 41.4442 35.957 41.1029 35.9055C40.7229 35.8475 40.3816 35.7251 40.0789 35.5384C39.7312 35.3323 39.4575 35.0522 39.2578 34.698C39.0904 34.4082 38.9745 34.083 38.9101 33.7223C38.8264 33.2136 38.8425 32.6501 38.9584 32.0319C39.0485 31.5553 39.1934 31.0691 39.3931 30.5732C39.4704 30.38 39.6893 30.0613 40.0499 29.6169L40.1369 29.53L40.2335 29.4527L40.2045 29.4237L40.1659 29.3851C39.9211 29.018 39.8342 28.6413 39.905 28.2549C39.9759 27.8685 40.1884 27.5368 40.5426 27.2599C40.8195 27.0474 41.1415 26.8864 41.5086 26.7769C41.8434 26.6868 42.1815 26.6546 42.5229 26.6803C42.8835 26.7061 43.2216 26.7963 43.5371 26.9508C43.8527 27.0989 44.136 27.2921 44.3872 27.5304C44.8573 27.9748 45.1857 28.5479 45.3725 29.2498L45.3822 29.3271Z" fill="url(#paint5_linear_50_379)"/>
<path d="M38.3103 35.4805C38.3425 35.4612 38.3876 35.4258 38.4455 35.3742L38.5228 35.3066C38.5485 35.2809 38.5679 35.2615 38.5807 35.2487C38.6194 35.2165 38.6323 35.2326 38.6194 35.297C38.6065 35.3678 38.5131 35.503 38.3393 35.7027C38.1718 35.8959 38.0237 36.044 37.8949 36.147C37.8369 36.205 37.7758 36.2597 37.7114 36.3112L37.6727 36.3402L37.6437 36.3595L37.5954 36.4078C37.5439 36.4465 37.4731 36.4819 37.3829 36.5141L37.2574 36.5431L37.1511 36.5721C37.0609 36.5914 36.9965 36.6107 36.9579 36.63C36.945 36.6365 36.9064 36.6171 36.842 36.5721C36.7776 36.5205 36.71 36.4529 36.6391 36.3692C36.4846 36.1824 36.3687 35.9732 36.2914 35.7413C36.2656 35.8379 36.2044 35.8315 36.1078 35.722C36.0177 35.619 35.9372 35.4676 35.8663 35.268C35.8406 35.1907 35.8116 35.0909 35.7794 34.9685L35.7408 34.8333L35.7118 34.6981C35.6667 34.5242 35.6184 34.4469 35.5669 34.4662C35.5862 34.2988 35.6216 34.0927 35.6731 33.848L35.7504 33.5292L35.818 33.2201L35.8567 33.0655L35.8857 32.9013C35.9114 32.7661 35.9404 32.6566 35.9726 32.5729L36.1272 31.974C36.2495 31.4717 36.3365 30.9565 36.388 30.4284L36.4073 30.3222V30.2545L36.417 30.1193C36.4234 30.0291 36.4234 29.9487 36.417 29.8778L36.4073 29.7716C36.4009 29.7329 36.3912 29.6975 36.3783 29.6653C36.3526 29.588 36.301 29.5429 36.2238 29.5301C36.095 29.4914 35.9565 29.5204 35.8084 29.617C35.7182 29.675 35.6216 29.7587 35.5186 29.8682C35.1773 30.1773 34.8199 30.5765 34.4464 31.066C34.1372 31.4652 33.8185 31.9193 33.49 32.428C33.3677 32.5826 33.255 32.7307 33.1519 32.8724L33.1616 32.882V32.9013C33.168 32.9207 33.1648 32.94 33.1519 32.9593L33.0553 33.1332L32.8621 33.4036C32.7849 33.5067 32.7237 33.5936 32.6786 33.6645C32.5498 33.8577 32.45 34.0154 32.3792 34.1378C32.3598 34.1893 32.3695 34.2118 32.4081 34.2054C31.996 34.9267 31.6965 35.5063 31.5098 35.9442L31.3939 35.8959L31.3842 35.9345L29.6454 35.1424L29.6647 35.1134L29.5488 35.0555L29.6358 34.8526C29.829 34.5049 30.0028 34.1507 30.1574 33.79L30.0994 33.7417C30.1252 33.6323 30.1638 33.5163 30.2154 33.394L30.3506 33.0752C30.4665 32.8112 30.5406 32.589 30.5728 32.4087C30.5792 32.3443 30.5728 32.3121 30.5534 32.3121L30.5245 32.3217H30.4858C30.7563 31.3429 30.9688 30.4027 31.1234 29.5011C31.3101 28.3999 31.3842 27.479 31.3456 26.7384C31.3456 26.6933 31.3456 26.6289 31.3456 26.5452L31.3552 26.4389L31.3649 26.3133C31.3778 26.0944 31.3745 25.9205 31.3552 25.7917L31.3649 25.5406C31.4035 25.6178 31.4389 25.7048 31.4711 25.8014L31.4228 25.6372L31.3745 25.4923L31.3842 25.415C31.4486 25.5245 31.5033 25.6565 31.5484 25.811C31.5291 25.7338 31.5033 25.6565 31.4711 25.5792C31.4389 25.489 31.41 25.4214 31.3842 25.3763C31.4486 25.4536 31.5033 25.5824 31.5484 25.7627C31.5806 25.8851 31.6096 26.0364 31.6353 26.2167C31.6289 26.0107 31.6321 25.8819 31.645 25.8304C31.6579 25.7788 31.6836 25.7788 31.7223 25.8304C31.7738 25.8948 31.8221 26.0075 31.8672 26.1684C31.9187 26.3488 31.9573 26.5516 31.9831 26.777C31.9831 26.7448 31.9799 26.6965 31.9734 26.6321L31.9638 26.4872C31.9509 26.3713 31.9509 26.3133 31.9638 26.3133C32.0153 26.3327 32.0378 26.4743 32.0314 26.7384V26.9026L32.0217 27.0475C32.0153 27.1634 32.0153 27.2375 32.0217 27.2697C32.0604 27.289 32.0733 27.1312 32.0604 26.7963V26.6031L32.0507 26.5065V26.4293C32.0443 26.3069 32.0475 26.2328 32.0604 26.2071L32.099 26.4389L32.1377 26.6901C32.157 26.8768 32.1634 27.0378 32.157 27.1731C32.1827 27.2246 32.1988 27.2149 32.2053 27.1441C32.2117 27.0797 32.2117 26.9831 32.2053 26.8543L32.186 26.6901L32.1763 26.6031V26.5355C32.1634 26.4389 32.1666 26.3938 32.186 26.4003C32.2117 26.6514 32.2246 26.9219 32.2246 27.2117C32.2504 27.0443 32.2922 26.9638 32.3502 26.9702H32.3888L32.4178 26.9606C32.4436 26.9477 32.4629 26.909 32.4757 26.8446L32.524 26.6804L32.5627 26.5162C32.5949 26.3938 32.6206 26.3166 32.64 26.2844C32.6722 26.2393 32.7076 26.2586 32.7462 26.3423C32.7913 26.4389 32.8332 26.616 32.8718 26.8736C32.9362 27.099 32.9426 27.5176 32.8911 28.1294C32.9491 27.9233 32.9974 27.7076 33.036 27.4822C33.1004 27.9974 33.1326 28.5126 33.1326 29.0277C33.1262 29.2789 33.1069 29.5623 33.0747 29.8778C33.3773 29.5236 33.651 29.2274 33.8957 28.9891C34.0696 28.8281 34.2371 28.6768 34.3981 28.5351C34.6814 28.3097 34.9487 28.1294 35.1998 27.9942C35.6957 27.7301 36.1755 27.6239 36.6391 27.6754C36.8066 27.6947 36.9708 27.7333 37.1318 27.7913C37.2541 27.8428 37.3636 27.9008 37.4602 27.9652C37.7629 28.197 37.9561 28.5126 38.0398 28.9118C38.1171 29.2596 38.1106 29.6943 38.0205 30.2159L37.9915 30.3898L37.9529 30.5637L37.9046 30.7955L37.8176 31.1722L37.6244 31.8967L37.4312 32.5826C37.3926 32.7242 37.3636 32.8337 37.3443 32.911C37.3121 33.0333 37.2896 33.1235 37.2767 33.1815L37.2187 33.5292L37.1414 33.8963C37.0899 34.1474 37.0545 34.3503 37.0352 34.5049C36.9901 34.8719 37.0062 35.1746 37.0835 35.4129C37.1286 35.5417 37.1865 35.6576 37.2574 35.7606C37.3475 35.8894 37.428 35.9796 37.4988 36.0311C37.5117 36.0375 37.5246 36.0472 37.5375 36.0601C37.5439 36.0601 37.5471 36.0633 37.5471 36.0697H37.5568H37.5665C37.5793 36.0697 37.6051 36.0601 37.6437 36.0408C37.8369 35.9571 38.0495 35.7542 38.2813 35.4322C38.262 35.4837 38.2716 35.4998 38.3103 35.4805Z" fill="url(#paint6_linear_50_379)"/>
<path d="M23.8889 31.5296L23.8986 31.5682L23.5605 31.5875L23.2417 31.5972C22.997 31.6165 22.7909 31.6358 22.6235 31.6551C22.6041 31.6616 22.5655 31.6487 22.5075 31.6165L22.4303 31.5779L22.353 31.5392L22.2564 31.4619L22.3337 31.433C22.3079 31.4394 22.2757 31.4426 22.2371 31.4426L22.1984 31.404L22.3143 31.3653C22.3015 31.3718 22.2821 31.375 22.2564 31.375H22.2177L22.1888 31.3847V31.375C22.2081 31.3621 22.2435 31.3557 22.295 31.3557L22.3626 31.346H22.4206C22.3111 31.3138 22.266 31.2655 22.2854 31.2011C22.3047 31.1432 22.3691 31.0916 22.4786 31.0466H22.4496L22.4109 31.0562C22.3852 31.0562 22.3691 31.053 22.3626 31.0466C22.3562 31.0015 22.3884 30.9822 22.4592 30.9886L22.4979 30.9983H22.5365C22.5623 31.0047 22.5784 31.0047 22.5848 30.9983C22.5848 30.9661 22.5462 30.9532 22.4689 30.9596L22.4206 30.9693H22.3723C22.3401 30.9629 22.3208 30.9532 22.3143 30.9403L22.3626 30.921L22.4206 30.892C22.4657 30.8727 22.5043 30.863 22.5365 30.863C22.543 30.818 22.514 30.8083 22.4496 30.8341L22.4109 30.8437L22.3723 30.8534C22.353 30.8534 22.3401 30.8469 22.3337 30.8341C22.3659 30.8276 22.3981 30.8212 22.4303 30.8147L22.4786 30.8051L22.5269 30.7954C22.4818 30.7761 22.4528 30.7375 22.4399 30.6795L22.4206 30.6119C22.4142 30.5926 22.4013 30.5765 22.382 30.5636L22.3337 30.5153L22.2757 30.467C22.2371 30.4348 22.2113 30.409 22.1984 30.3897C22.1598 30.3253 22.192 30.2545 22.295 30.1772C22.3272 30.1385 22.427 30.1031 22.5945 30.0709C22.543 30.0452 22.4818 30.0194 22.4109 29.9937L22.5848 29.8488L22.7684 29.7232C23.0195 29.5879 23.3512 29.5171 23.7633 29.5107L23.8116 29.501L25.5021 29.472C26.3715 29.4656 26.8609 29.4463 26.9704 29.4141C27.17 29.4205 27.4051 29.4269 27.6755 29.4334L28.3614 29.443C28.9152 29.4559 29.3596 29.4785 29.6944 29.5107C29.6751 29.5364 29.6912 29.5718 29.7427 29.6169L29.791 29.6749C29.8039 29.6942 29.8007 29.7103 29.7814 29.7232C29.7685 29.7361 29.7234 29.7361 29.6461 29.7232L29.5399 29.7039C29.5012 29.6974 29.469 29.6974 29.4433 29.7039C29.2952 29.7618 29.1857 29.8455 29.1148 29.955C29.0504 30.0387 29.0086 30.1418 28.9893 30.2641C28.9828 30.2963 28.9442 30.3156 28.8734 30.3221H28.7768L28.6802 30.3124C28.7059 30.4026 28.6544 30.5024 28.5256 30.6119L28.4483 30.6795L28.3807 30.7471C28.3421 30.7986 28.3227 30.8534 28.3227 30.9113L28.1778 30.892L28.0233 30.8727C27.8945 30.8534 27.7915 30.8469 27.7142 30.8534C27.6627 30.8663 27.5983 30.8856 27.521 30.9113L27.3278 30.9886C27.0573 31.0466 26.7579 31.111 26.4294 31.1818L26.0044 31.2784L25.589 31.375C25.5375 31.3686 25.4892 31.3621 25.4441 31.3557V31.3847L25.4345 31.4136L25.3765 31.4233L25.2992 31.4136L25.2219 31.404C25.164 31.3975 25.1189 31.4008 25.0867 31.4136C25.0738 31.4201 25.0706 31.4394 25.077 31.4716C24.8903 31.4909 24.7068 31.507 24.5264 31.5199L24.2366 31.433V31.5006C24.2109 31.5135 24.1819 31.5167 24.1497 31.5102L24.0628 31.4813C23.9919 31.4491 23.9372 31.4426 23.8986 31.4619C23.8857 31.4684 23.8792 31.4813 23.8792 31.5006L23.8889 31.5296Z" fill="url(#paint7_linear_50_379)"/>
<path d="M15.8611 31.4234C15.8869 31.462 15.9126 31.491 15.9384 31.5103C15.9642 31.5296 15.9996 31.5425 16.0447 31.5489C16.0962 31.5618 16.1573 31.565 16.2282 31.5586C16.5244 31.5393 16.84 31.3944 17.1748 31.1239C17.2908 31.0337 17.4035 30.9307 17.5129 30.8148C17.5902 30.7375 17.6611 30.657 17.7255 30.5733C17.8865 30.393 18.0603 30.1579 18.2471 29.8681L18.334 29.5977C18.4049 29.3529 18.4371 29.1501 18.4306 28.9891V28.9311L18.421 28.8925V28.8828V28.8732V28.8635L18.4016 28.8249L18.392 28.7862C18.3533 28.6768 18.3115 28.5834 18.2664 28.5061C18.1762 28.3644 18.0732 28.2775 17.9573 28.2453C17.8092 28.2066 17.6321 28.2292 17.426 28.3129C16.9301 28.5061 16.5244 28.9118 16.2089 29.53C16.0608 29.8069 15.9481 30.1032 15.8708 30.4187C15.7935 30.76 15.771 31.0241 15.8032 31.2108C15.816 31.301 15.8354 31.3718 15.8611 31.4234ZM22.2269 35.2486L22.3815 35.1327C22.4266 35.0941 22.4362 35.1134 22.4105 35.1907C22.3911 35.2293 22.3525 35.2841 22.2945 35.3549C22.2237 35.4322 22.1464 35.503 22.0627 35.5674C21.9017 35.6898 21.7214 35.7767 21.5218 35.8282C21.3479 35.8862 21.1643 35.9087 20.9712 35.8958C20.9003 35.8958 20.823 35.8862 20.7393 35.8669L20.6427 35.8475L20.5461 35.8186C20.295 35.7477 20.1211 35.7188 20.0245 35.7316C19.9987 35.7316 19.9569 35.6962 19.8989 35.6254C19.841 35.5417 19.783 35.4418 19.725 35.3259C19.6284 35.1198 19.5544 34.8236 19.5029 34.4372C19.4642 34.5467 19.4063 34.5242 19.329 34.3696C19.2646 34.2408 19.2002 34.0444 19.1358 33.7803L19.0875 33.5678L19.0392 33.365C19.007 33.204 18.9812 33.0913 18.9619 33.0269C18.4918 33.7675 17.9734 34.4726 17.4067 35.1424C16.943 35.6769 16.4793 36.1438 16.0157 36.5431C15.3717 37.0969 14.776 37.4897 14.2286 37.7215C14.1062 37.7731 13.9871 37.8117 13.8712 37.8375C13.7166 37.8697 13.546 37.8922 13.3592 37.9051C12.844 37.9244 12.4093 37.7859 12.0552 37.4897C11.8877 37.3352 11.7589 37.1548 11.6688 36.9488C11.746 37.0582 11.8426 37.1677 11.9586 37.2772C11.8233 37.1484 11.7106 37.0035 11.6205 36.8425L11.5915 36.7459L11.5722 36.659C11.7138 36.9294 11.9006 37.1516 12.1324 37.3255C12.0294 37.2482 11.9425 37.1645 11.8716 37.0743C11.8072 37.0035 11.746 36.9166 11.6881 36.8135L11.6205 36.6976L11.5915 36.6397L11.5625 36.5914V36.5817C11.6333 36.7298 11.7203 36.8683 11.8233 36.9971C11.9521 37.1516 12.0841 37.274 12.2194 37.3641C12.522 37.5638 12.8537 37.6507 13.2143 37.625C13.0211 37.625 12.8473 37.596 12.6927 37.538C12.6412 37.5187 12.5897 37.4962 12.5381 37.4704L12.4898 37.4414L12.4512 37.4124C12.3739 37.348 12.3997 37.3287 12.5285 37.3545L12.5768 37.3641L12.6347 37.3835C12.6863 37.3899 12.7378 37.3963 12.7893 37.4028C12.9181 37.4157 13.0501 37.4124 13.1853 37.3931C13.4236 37.3674 13.6941 37.2836 13.9968 37.142C13.8873 37.187 13.7682 37.2257 13.6394 37.2579C13.5106 37.2965 13.4494 37.3062 13.4558 37.2869C13.4687 37.2611 13.5363 37.2289 13.6587 37.1903L13.736 37.1613L13.8326 37.1323L14.0354 37.055C14.3445 36.9455 14.5538 36.8425 14.6633 36.7459C14.6633 36.7201 14.6086 36.7395 14.4991 36.8039L14.4121 36.8425L14.3155 36.9005C14.2318 36.9391 14.1545 36.9745 14.0837 37.0067C13.9356 37.084 13.7746 37.142 13.6007 37.1806C13.4397 37.2192 13.3335 37.2257 13.2819 37.1999C13.488 37.1742 13.7038 37.1065 13.9292 36.9971C14.0129 36.9584 14.1095 36.9069 14.2189 36.8425L14.4894 36.688C14.5281 36.6364 14.5087 36.63 14.4315 36.6686C14.4057 36.6815 14.3606 36.7073 14.2962 36.7459L14.2093 36.7942L14.1127 36.8425C13.9903 36.9133 13.8648 36.9713 13.736 37.0164C13.6072 37.0615 13.546 37.0743 13.5524 37.055C13.8358 36.9649 14.1513 36.8167 14.4991 36.6107C14.3059 36.6944 14.1964 36.7073 14.1706 36.6493L14.161 36.6203C14.1545 36.6075 14.1481 36.5978 14.1417 36.5914C14.1159 36.572 14.0644 36.5753 13.9871 36.601C13.6522 36.659 13.4494 36.6622 13.3785 36.6107C13.3399 36.5849 13.3496 36.5495 13.4075 36.5044C13.4333 36.4851 13.488 36.4529 13.5717 36.4078L13.6297 36.3692L13.6973 36.3209C13.7553 36.2887 13.81 36.2565 13.8615 36.2243C13.8873 36.1985 13.942 36.1567 14.0258 36.0987L14.0837 36.0601L14.1417 36.0118L14.2769 35.9152C14.5216 35.7413 14.7309 35.5771 14.9048 35.4225C14.7824 35.4934 14.6826 35.5513 14.6053 35.5964C14.4894 35.6608 14.3832 35.7188 14.2866 35.7703C14.6086 35.4612 14.9692 35.0458 15.3685 34.5242C15.6776 34.1506 15.9899 33.7417 16.3055 33.2974C15.9191 33.3296 15.5617 33.278 15.2332 33.1428C14.6794 32.9174 14.3027 32.5085 14.103 31.916C13.9485 31.4845 13.9034 31.0015 13.9678 30.467C14.0193 30.0484 14.1095 29.646 14.2383 29.2596C14.3477 28.9955 14.4733 28.7444 14.615 28.5061L14.6053 28.4964V28.4675C14.6053 28.4481 14.6118 28.4224 14.6247 28.3902L14.7792 28.1197C15.1398 27.6045 15.6003 27.1634 16.1606 26.7963C16.2378 26.7448 16.2507 26.7158 16.1992 26.7094C16.8947 26.2908 17.5902 26.1394 18.2857 26.2554C18.7108 26.3326 19.0907 26.5097 19.4256 26.7866C19.7089 27.0249 19.9472 27.3276 20.1404 27.6947C20.2112 27.8557 20.2692 28.0295 20.3143 28.2163C20.3272 28.2549 20.34 28.3032 20.3529 28.3612C20.3722 28.4256 20.3851 28.4836 20.3916 28.5351C20.4044 28.6768 20.4109 28.783 20.4109 28.8538V28.9021V28.9408L21.0195 29.1726C20.4141 30.8405 20.179 32.457 20.3143 34.0218C20.3336 34.2086 20.3626 34.3954 20.4012 34.5821C20.427 34.7367 20.4656 34.8751 20.5171 34.9975C20.6202 35.2229 20.7619 35.3935 20.9422 35.5095C21.3028 35.7284 21.6699 35.6544 22.0434 35.2873C22.0241 35.3324 22.0337 35.3485 22.0724 35.3356C22.111 35.3291 22.1625 35.3002 22.2269 35.2486Z" fill="url(#paint8_linear_50_379)"/>
<path d="M12.2558 36.7604C12.2905 36.7604 12.3511 36.7212 12.4376 36.6428L12.5415 36.5723C12.5819 36.5252 12.6108 36.5017 12.6281 36.5017C12.6858 36.4704 12.6887 36.5174 12.6368 36.6428C12.6021 36.7212 12.5415 36.8231 12.455 36.9486C12.3568 37.0897 12.2558 37.2151 12.1519 37.3249C12.0481 37.4346 11.9355 37.5209 11.8143 37.5836C11.722 37.6463 11.6354 37.6777 11.5546 37.6777C11.4045 37.7404 11.2689 37.7169 11.1477 37.6071C11.0958 37.5601 11.038 37.4817 10.9746 37.3719C10.9342 37.3092 10.8793 37.223 10.8101 37.1132C10.6023 36.7212 10.4551 36.5096 10.3685 36.4782C10.3512 36.4782 10.3224 36.3684 10.282 36.1489C10.2358 35.9294 10.1954 35.655 10.1608 35.3258C10.0857 34.7143 10.0251 33.9695 9.97897 33.0914C9.93857 33.358 9.88374 33.311 9.81448 32.9503C9.75677 32.6524 9.69328 32.182 9.62402 31.5392L9.58073 31.1158L9.53745 30.6925C9.50282 30.3632 9.47685 30.1123 9.45953 29.9399C9.39605 29.4538 9.34122 29.25 9.29504 29.3284C9.28927 28.4503 9.29793 27.2352 9.32102 25.6829L9.33833 24.7186L9.35565 23.7779C9.36719 23.0566 9.37584 22.4686 9.38162 22.0139C9.38162 21.3711 9.38162 20.5949 9.38162 19.6855L9.37296 17.3101L9.39893 15.8519L9.43356 14.3937C9.2027 15.5854 8.97472 16.7143 8.74963 17.7805C8.55917 18.5488 8.29368 19.5758 7.95316 20.8615L7.97914 21.0496C7.88102 21.5357 7.72519 22.1315 7.51164 22.8371L7.26924 23.6838C7.17689 24.0131 7.09609 24.3188 7.02683 24.601C6.99221 24.7892 6.98355 24.8911 7.00086 24.9068H7.03549C7.05281 24.8911 7.06435 24.8911 7.07012 24.9068C6.34291 27.6507 5.62724 30.0104 4.92311 31.986C4.46139 33.2561 4.01987 34.3144 3.59855 35.1611C3.30997 35.7413 3.03582 36.2038 2.7761 36.5488C2.60296 36.7996 2.4327 36.9878 2.26532 37.1132C2.00561 37.3327 1.76032 37.4346 1.52945 37.419C1.39094 37.4033 1.24954 37.3327 1.10525 37.2073C0.932102 37.0348 0.77627 36.7996 0.637754 36.5017C0.337634 35.8589 0.132745 34.9259 0.0230861 33.7029C0 33.2796 -0.00577153 32.8641 0.00577153 32.4564C0.0404007 32.9582 0.0865729 33.4207 0.144288 33.8441C0.0808014 33.3894 0.0346292 32.8562 0.00577153 32.2448C0.0115431 32.135 0.0202003 32.0174 0.0317434 31.892C0.0721441 32.6759 0.135631 33.358 0.222204 33.9381C0.176032 33.6559 0.135631 33.2796 0.101002 32.8092C0.0779156 32.4799 0.060601 32.1272 0.049058 31.7508L0.0750299 32.1742L0.109659 32.6446C0.138517 33.0209 0.173146 33.3737 0.213546 33.7029C0.323206 34.5967 0.484808 35.2787 0.698355 35.7491C0.582924 35.4198 0.49058 35.0827 0.421321 34.7378C0.398235 34.6123 0.378035 34.4869 0.36072 34.3615L0.352063 34.2204L0.334749 34.1028C0.323206 33.8519 0.352063 33.8519 0.421321 34.1028L0.447293 34.2204L0.481923 34.338C0.51078 34.4477 0.536752 34.5418 0.559838 34.6202C0.640639 34.8711 0.724327 35.0827 0.8109 35.2552C1.0129 35.6785 1.26108 35.8902 1.55543 35.8902C1.44577 35.8745 1.35342 35.8353 1.27839 35.7726C1.21491 35.7256 1.15719 35.6707 1.10525 35.608C1.08793 35.5766 1.0735 35.5531 1.06196 35.5374C1.05619 35.5061 1.0533 35.4904 1.0533 35.4904C1.07062 35.4747 1.14276 35.5139 1.26974 35.608C1.33322 35.655 1.39382 35.6864 1.45154 35.7021C1.52657 35.7334 1.59583 35.7413 1.65931 35.7256C1.8036 35.7256 1.94789 35.6785 2.09218 35.5845C2.20184 35.5061 2.28841 35.4198 2.3519 35.3258C2.3519 35.2787 2.29707 35.3022 2.18741 35.3963L2.09218 35.4669L1.98829 35.5374C1.90172 35.6001 1.81803 35.6393 1.73723 35.655C1.54677 35.7177 1.3794 35.6707 1.23511 35.5139C1.17162 35.4512 1.11679 35.3728 1.07062 35.2787C1.03022 35.2003 1.00425 35.1298 0.992703 35.067C1.14853 35.3806 1.35054 35.5218 1.59871 35.4904C1.7834 35.459 1.98541 35.3336 2.20472 35.1141C2.23935 35.02 2.22204 34.9965 2.15278 35.0435L2.09218 35.0906L2.00561 35.1611C1.93635 35.2238 1.87286 35.2709 1.81515 35.3022C1.69394 35.3806 1.56408 35.3963 1.42557 35.3493C1.37362 35.3179 1.33034 35.2866 1.29571 35.2552C1.26685 35.2238 1.25531 35.2003 1.26108 35.1846C1.41114 35.3101 1.57563 35.3414 1.75454 35.2787C1.89883 35.2317 2.05178 35.1141 2.21338 34.9259C2.10372 35.0043 2.02581 35.0279 1.97963 34.9965C1.96232 34.9808 1.94789 34.9651 1.93635 34.9495L1.92769 34.8554C1.92192 34.7143 1.87575 34.6437 1.78917 34.6437C1.69106 34.5967 1.59871 34.5104 1.51214 34.385C1.43134 34.2596 1.38805 34.142 1.38228 34.0322C1.37074 33.9381 1.39382 33.8833 1.45154 33.8676L1.51214 33.8441L1.5814 33.8205C1.64489 33.7735 1.70837 33.7186 1.77186 33.6559C1.7834 33.6402 1.8238 33.5853 1.89306 33.4913C1.93346 33.4442 1.96809 33.3972 1.99695 33.3502C2.03735 33.3031 2.07486 33.2482 2.10949 33.1855C2.32881 32.8719 2.51927 32.5505 2.68087 32.2212C2.4731 32.4878 2.2913 32.6916 2.13547 32.8327C2.41827 32.2683 2.75302 31.3745 3.13971 30.1515C3.92464 27.878 4.7442 25.1184 5.59838 21.8728L5.71958 21.3789C5.99085 20.3754 6.28231 19.2073 6.59397 17.8746C6.99798 16.1498 7.37601 14.4094 7.72808 12.6533C8.61689 8.24738 9.30659 4.02961 9.79717 0L11.5027 1.15244C11.3584 3.73954 11.2343 6.14634 11.1304 8.37282C11.038 10.4111 10.9832 11.8145 10.9659 12.5827C10.6946 18.5252 10.5734 23.9425 10.6023 28.8345C10.6196 30.2456 10.66 31.5 10.7235 32.5975C10.7985 33.946 10.9053 35.02 11.0438 35.8197C11.1188 36.243 11.1968 36.5723 11.2776 36.8075C11.3353 36.9643 11.393 37.074 11.4507 37.1367C11.5084 37.1995 11.6094 37.1916 11.7537 37.1132C11.9153 37.0191 12.0798 36.8545 12.2472 36.6193C12.2068 36.7291 12.2097 36.7761 12.2558 36.7604Z" fill="url(#paint9_linear_50_379)"/>
<defs>
<linearGradient id="paint0_linear_50_379" x1="2.01023" y1="46.3701" x2="19.6192" y2="-7.19052" gradientUnits="userSpaceOnUse">
<stop stop-color="#AF7D3A"/>
<stop offset="1" stop-color="#6B1A8F"/>
</linearGradient>
<linearGradient id="paint1_linear_50_379" x1="2.00933" y1="46.37" x2="19.6183" y2="-7.19056" gradientUnits="userSpaceOnUse">
<stop stop-color="#AF7D3A"/>
<stop offset="1" stop-color="#6B1A8F"/>
</linearGradient>
<linearGradient id="paint2_linear_50_379" x1="2.01022" y1="46.3701" x2="19.6192" y2="-7.19052" gradientUnits="userSpaceOnUse">
<stop stop-color="#AF7D3A"/>
<stop offset="1" stop-color="#6B1A8F"/>
</linearGradient>
<linearGradient id="paint3_linear_50_379" x1="2.01007" y1="46.37" x2="19.619" y2="-7.19056" gradientUnits="userSpaceOnUse">
<stop stop-color="#AF7D3A"/>
<stop offset="1" stop-color="#6B1A8F"/>
</linearGradient>
<linearGradient id="paint4_linear_50_379" x1="2.01002" y1="46.37" x2="19.619" y2="-7.19055" gradientUnits="userSpaceOnUse">
<stop stop-color="#AF7D3A"/>
<stop offset="1" stop-color="#6B1A8F"/>
</linearGradient>
<linearGradient id="paint5_linear_50_379" x1="2.01022" y1="46.37" x2="19.6192" y2="-7.19055" gradientUnits="userSpaceOnUse">
<stop stop-color="#AF7D3A"/>
<stop offset="1" stop-color="#6B1A8F"/>
</linearGradient>
<linearGradient id="paint6_linear_50_379" x1="2.00932" y1="46.3701" x2="19.6183" y2="-7.19048" gradientUnits="userSpaceOnUse">
<stop stop-color="#AF7D3A"/>
<stop offset="1" stop-color="#6B1A8F"/>
</linearGradient>
<linearGradient id="paint7_linear_50_379" x1="2.01003" y1="46.37" x2="19.619" y2="-7.19055" gradientUnits="userSpaceOnUse">
<stop stop-color="#AF7D3A"/>
<stop offset="1" stop-color="#6B1A8F"/>
</linearGradient>
<linearGradient id="paint8_linear_50_379" x1="2.00955" y1="46.3701" x2="19.6185" y2="-7.19051" gradientUnits="userSpaceOnUse">
<stop stop-color="#AF7D3A"/>
<stop offset="1" stop-color="#6B1A8F"/>
</linearGradient>
<linearGradient id="paint9_linear_50_379" x1="1.90225" y1="59.0404" x2="73.6943" y2="-21.3396" gradientUnits="userSpaceOnUse">
<stop stop-color="#AF7D3A"/>
<stop offset="1" stop-color="#6B1A8F"/>
</linearGradient>
</defs>
</svg>
